<?xml version="1.0" standalone="no"?>
<!DOCTYPE svg PUBLIC "-//W3C//DTD SVG 20010904//EN"
 "http://www.w3.org/TR/2001/REC-SVG-20010904/DTD/svg10.dtd">
<svg version="1.0" xmlns="http://www.w3.org/2000/svg"
 width="802.000000pt" height="802.000000pt" viewBox="0 0 802.000000 802.000000"
 preserveAspectRatio="xMidYMid meet">
<metadata>
Created by potrace 1.14, written by Peter Selinger 2001-2017
</metadata>
<g transform="translate(0.000000,802.000000) scale(0.100000,-0.100000)"
fill="#000000" stroke="none">
<path d="M3952 7176 c6 -12 7 -18 3 -14 -10 10 -47 -10 -40 -22 3 -4 -1 -11
-7 -14 -9 -3 -8 -9 6 -20 10 -8 23 -13 27 -10 5 3 6 -3 2 -12 -4 -12 -3 -15 5
-10 7 4 12 1 12 -9 0 -9 -4 -13 -10 -10 -5 3 -10 -1 -10 -10 0 -15 -2 -15 -15
-1 -9 8 -22 13 -30 9 -9 -3 -21 -1 -28 5 -20 16 -53 18 -71 3 -14 -12 -16 -12
-11 0 4 10 -5 14 -35 15 -22 0 -40 -3 -40 -7 0 -4 -16 -3 -36 1 -30 7 -40 5
-60 -13 -40 -38 -54 -48 -54 -40 0 4 -5 0 -11 -9 -5 -10 -17 -18 -25 -18 -8 0
-13 -3 -11 -7 2 -5 -7 -18 -20 -30 -13 -12 -23 -18 -23 -13 0 6 -9 2 -20 -8
-11 -9 -16 -18 -10 -20 5 -2 10 -8 10 -13 0 -6 -5 -7 -12 -3 -8 5 -8 3 -2 -7
13 -20 11 -102 -2 -116 -12 -13 -12 -47 0 -50 16 -3 25 -27 13 -35 -8 -5 -7
-8 5 -8 11 0 16 -6 13 -20 -3 -14 2 -20 13 -20 15 0 15 -2 2 -10 -10 -6 -11
-10 -2 -10 6 0 12 -7 12 -15 0 -8 5 -15 10 -15 6 0 10 -7 10 -15 0 -8 6 -15
14 -15 9 0 12 -8 8 -26 -3 -19 -1 -25 7 -20 8 5 11 -7 11 -39 0 -34 3 -44 13
-39 7 5 6 0 -3 -11 -8 -10 -10 -16 -3 -12 8 5 13 -2 15 -20 4 -40 -3 -104 -11
-98 -4 2 -8 -2 -8 -10 0 -8 4 -12 9 -9 4 3 8 -4 8 -16 0 -12 5 -18 10 -15 6 3
10 -1 10 -9 0 -10 7 -13 21 -11 14 3 19 0 16 -9 -4 -9 6 -12 34 -11 40 2 58
-8 39 -20 -6 -4 -8 -10 -5 -15 9 -14 -52 -70 -75 -70 -12 0 -19 3 -16 8 2 4
-9 8 -26 9 -21 0 -26 -2 -17 -8 9 -6 2 -9 -24 -9 -22 0 -36 -4 -32 -9 3 -6 -4
-8 -15 -6 -13 2 -20 -1 -20 -11 0 -8 -5 -14 -11 -14 -6 0 -28 -18 -49 -40 -20
-21 -41 -36 -45 -32 -5 4 -5 -1 -2 -10 7 -20 -9 -35 -16 -16 -4 8 -6 7 -6 -3
-1 -18 -31 -35 -31 -19 0 6 6 10 13 10 6 0 4 5 -5 11 -10 5 -18 15 -18 22 0 7
4 6 10 -3 5 -8 10 -10 10 -4 0 6 -7 17 -15 24 -9 7 -13 21 -10 31 3 9 1 20 -5
24 -5 3 -10 11 -10 16 0 6 6 7 13 3 8 -6 8 -3 -1 9 -15 18 -14 74 2 96 9 12 8
13 -4 6 -12 -6 -13 -5 -2 6 6 7 12 30 12 52 0 21 4 46 8 55 9 18 -10 67 -21
55 -4 -3 -7 6 -7 21 0 19 -4 25 -12 20 -9 -5 -9 -3 1 9 11 14 11 18 -3 23 -9
3 -13 11 -9 17 3 5 2 7 -4 4 -5 -3 -22 0 -37 8 -18 10 -24 10 -20 2 4 -7 -1
-5 -12 4 -10 9 -27 15 -37 14 -10 -2 -14 1 -10 8 4 6 0 8 -10 4 -10 -3 -17 -2
-17 4 0 13 -31 7 -49 -9 -12 -11 -15 -11 -22 0 -7 10 -9 10 -9 0 0 -7 -8 -12
-17 -10 -10 2 -17 -2 -16 -8 1 -7 -9 -11 -26 -10 -20 1 -27 -2 -24 -11 3 -8
-3 -13 -16 -13 -12 0 -21 -4 -21 -10 0 -5 -4 -10 -10 -10 -5 0 -10 21 -10 46
0 25 -4 43 -9 40 -5 -3 -14 0 -20 8 -14 17 -51 9 -51 -10 0 -8 -5 -14 -11 -14
-6 0 -9 -7 -5 -15 3 -8 0 -15 -7 -15 -7 0 1 -11 17 -25 16 -14 27 -28 24 -31
-3 -3 -31 -6 -61 -7 -31 -1 -59 -6 -63 -10 -4 -4 -16 -7 -26 -7 -10 0 -18 -4
-18 -10 0 -5 -14 -10 -31 -10 -16 0 -28 -4 -25 -9 3 -4 -7 -21 -23 -37 -16
-16 -26 -35 -23 -43 3 -9 1 -12 -6 -7 -7 4 -12 1 -12 -9 0 -8 -6 -18 -13 -21
-15 -5 -17 -51 -2 -62 6 -4 10 -24 10 -46 0 -37 25 -83 39 -69 3 3 6 -1 6 -10
0 -9 5 -17 11 -17 5 0 7 -4 4 -10 -3 -5 1 -10 9 -10 9 0 16 -7 16 -15 0 -8 3
-14 8 -14 20 3 32 -2 32 -16 0 -8 4 -15 10 -15 5 0 7 -7 4 -15 -4 -8 -2 -15 4
-15 5 0 17 -12 27 -26 11 -18 13 -24 4 -19 -8 5 -4 -3 8 -16 16 -18 19 -28 12
-41 -7 -13 -7 -18 1 -18 6 0 8 -4 5 -10 -4 -6 5 -10 19 -10 14 0 26 -4 26 -10
0 -5 5 -10 11 -10 5 0 7 6 3 13 -4 6 -3 8 1 4 15 -13 14 -37 -1 -37 -9 0 -12
-4 -9 -10 3 -5 1 -10 -5 -10 -6 0 -8 -5 -4 -12 4 -7 3 -8 -5 -4 -6 4 -14 0
-17 -8 -3 -9 -15 -16 -27 -16 -11 0 -17 -3 -14 -6 8 -8 -55 -44 -65 -37 -5 2
-8 -2 -8 -9 0 -11 -2 -11 -9 0 -4 7 -17 14 -29 15 -11 0 -19 4 -16 8 2 4 -5
14 -16 22 -11 7 -17 17 -13 20 3 4 -1 7 -11 7 -9 0 -14 5 -11 10 3 6 1 10 -5
10 -6 0 -8 5 -5 10 3 6 1 10 -5 10 -6 0 -8 5 -5 10 3 6 -1 10 -9 10 -9 0 -16
9 -16 20 0 11 -5 20 -11 20 -5 0 -7 5 -4 10 3 6 2 10 -4 10 -5 0 -13 9 -16 20
-4 11 -11 18 -16 15 -5 -4 -9 -1 -9 5 0 15 -26 41 -34 33 -3 -4 -6 -1 -6 6 0
7 -4 10 -9 7 -5 -4 -11 -1 -13 6 -3 8 -31 13 -79 14 -79 2 -120 -8 -81 -20 12
-4 22 -12 22 -17 0 -5 7 -9 15 -9 8 0 15 -4 15 -10 0 -5 6 -10 13 -10 7 0 13
-9 14 -20 1 -11 -3 -20 -8 -20 -6 0 -7 5 -4 10 5 7 -19 10 -69 9 -58 -1 -76
-5 -76 -16 0 -8 -4 -11 -10 -8 -5 3 -10 1 -10 -4 0 -6 11 -11 25 -11 14 0 25
-4 25 -10 0 -5 12 -10 26 -10 14 0 23 -4 19 -10 -3 -5 1 -10 10 -10 9 0 13 -4
10 -10 -3 -5 3 -10 15 -10 12 0 18 -4 15 -10 -6 -9 8 -14 28 -11 7 1 11 -15 8
-32 -1 -5 3 -6 9 -2 5 3 10 1 10 -5 0 -6 5 -8 10 -5 6 3 10 -1 10 -10 0 -9 5
-13 10 -10 6 3 10 -2 10 -11 0 -10 3 -14 6 -11 4 4 15 -3 25 -15 11 -11 19
-18 19 -14 0 4 7 0 16 -8 8 -9 20 -14 25 -11 5 4 9 1 9 -5 0 -6 4 -9 9 -6 5 4
11 1 13 -5 3 -10 18 -14 71 -18 11 0 16 -6 12 -13 -4 -7 1 -4 9 6 9 11 16 15
16 10 0 -9 31 -11 50 -4 3 1 19 2 35 2 17 0 36 5 44 12 10 7 13 7 8 0 -3 -6 0
-11 8 -11 8 0 12 4 9 9 -3 4 1 9 8 10 45 5 88 19 88 30 0 5 5 6 10 3 6 -3 10
-1 10 4 0 6 7 11 16 11 8 0 12 5 9 10 -3 6 1 10 10 10 8 0 18 7 21 15 4 8 10
12 15 9 5 -3 9 4 9 15 0 12 5 21 10 21 6 0 10 9 10 21 0 11 5 17 10 14 6 -3
10 4 10 17 0 28 8 39 39 56 19 11 22 11 16 0 -6 -10 -5 -11 6 0 7 6 25 12 40
12 15 0 31 5 34 10 3 6 15 10 26 10 10 0 19 -4 19 -10 0 -5 13 -10 29 -10 16
0 31 -5 33 -11 2 -7 29 -10 73 -9 39 1 78 2 89 1 10 0 16 3 12 6 -3 3 15 19
39 34 25 16 45 33 45 39 0 6 5 8 10 5 6 -3 10 2 10 11 0 10 3 15 6 11 8 -8 34
18 34 34 0 7 3 10 6 6 8 -7 44 24 38 34 -2 4 7 6 20 5 17 -2 23 1 19 10 -4 11
1 11 23 -1 16 -8 35 -15 42 -15 6 0 12 -4 12 -9 0 -5 12 -8 26 -6 14 1 28 -3
30 -10 6 -16 50 -11 46 5 -2 10 1 10 14 -1 15 -12 17 -12 9 0 -6 10 -4 13 7 9
18 -7 44 28 25 35 -7 3 -4 6 6 6 10 1 16 5 13 10 -4 5 -2 11 3 13 5 1 11 10
13 18 2 8 12 23 22 33 12 10 14 17 6 17 -9 0 -10 3 -1 13 6 8 12 22 14 33 5
35 21 49 57 49 42 0 69 -22 72 -57 1 -15 6 -24 10 -22 4 3 8 -7 8 -21 0 -16 4
-24 11 -20 6 4 9 0 7 -11 -2 -11 2 -18 9 -17 7 2 10 -4 7 -12 -4 -9 1 -18 11
-21 13 -5 14 -9 3 -15 -9 -6 -6 -9 12 -9 18 0 21 -3 11 -9 -10 -6 -10 -10 -1
-16 6 -4 14 -5 17 -1 3 3 13 -2 21 -11 11 -11 17 -12 20 -4 3 9 7 9 18 0 11
-9 14 -9 14 0 0 7 5 9 10 6 6 -3 10 -1 10 5 0 7 6 10 13 7 6 -2 21 3 31 12 12
10 16 11 12 3 -7 -11 -4 -12 13 -2 12 6 19 14 17 18 -3 5 5 9 17 9 16 2 18 0
8 -7 -11 -6 -8 -9 10 -12 13 -2 23 -9 21 -16 -1 -8 2 -11 7 -8 5 3 23 -10 40
-29 17 -20 31 -32 31 -29 0 4 15 -9 33 -28 54 -61 96 -78 187 -78 47 0 80 4
80 10 0 5 3 9 8 9 23 -4 52 2 48 10 -3 5 10 9 29 9 19 0 38 -4 41 -9 3 -5 16
-9 30 -9 13 0 24 -4 24 -10 0 -5 11 -10 25 -10 18 0 25 -5 25 -20 0 -11 6 -20
13 -20 8 0 7 -4 -3 -10 -10 -6 -11 -10 -2 -10 6 0 12 -6 12 -14 0 -8 14 -30
30 -48 17 -18 30 -36 30 -41 0 -4 5 -5 10 -2 6 3 10 -1 10 -9 0 -10 6 -13 15
-10 8 4 15 2 15 -4 0 -12 57 -36 82 -35 10 1 18 -3 18 -8 0 -6 5 -7 10 -4 6 3
10 1 10 -4 0 -7 22 -11 53 -10 28 1 55 0 60 -1 4 -1 10 -3 15 -4 4 -1 13 -5
21 -10 10 -6 12 -5 7 2 -6 11 22 16 71 15 7 -1 10 4 7 9 -3 5 0 8 7 7 20 -4
59 11 59 22 0 5 7 9 15 9 9 0 18 7 22 16 3 9 12 13 21 9 9 -3 14 -3 10 0 -9 9
23 45 34 39 4 -3 8 3 8 12 0 10 3 15 6 11 4 -3 24 12 44 33 21 22 46 40 55 40
9 0 13 5 10 10 -3 6 0 10 8 10 8 0 27 7 43 14 15 8 32 12 38 9 6 -4 2 3 -8 15
-16 19 -30 22 -88 22 -41 0 -68 -4 -68 -11 0 -5 -5 -7 -11 -3 -8 4 -7 9 2 15
8 5 10 9 4 9 -5 0 2 8 15 17 14 10 29 17 33 15 5 -1 6 2 2 8 -6 9 7 14 28 11
4 0 7 5 7 13 0 8 -8 13 -17 11 -10 -1 -26 1 -35 6 -11 6 -18 5 -22 -4 -5 -9
-7 -9 -12 0 -3 8 -12 10 -22 5 -9 -5 -24 -8 -32 -7 -8 0 -20 -6 -27 -15 -6 -8
-14 -12 -18 -8 -4 4 -17 -4 -30 -18 -12 -13 -28 -24 -34 -24 -7 0 -9 -4 -6
-10 3 -5 1 -10 -4 -10 -6 0 -11 -7 -11 -16 0 -8 -4 -12 -10 -9 -5 3 -10 -3
-10 -14 0 -12 -4 -21 -10 -21 -5 0 -10 -9 -10 -21 0 -11 -4 -17 -10 -14 -5 3
-10 0 -10 -8 0 -8 -23 -38 -50 -66 -36 -38 -54 -50 -63 -43 -7 5 -20 8 -29 7
-10 -2 -16 2 -15 8 1 6 -4 11 -11 12 -8 0 -20 8 -27 19 -8 10 -19 15 -26 10
-8 -4 -10 -3 -5 4 4 7 2 12 -4 12 -15 0 -41 26 -33 34 4 3 2 6 -4 6 -6 0 -14
7 -17 16 -3 9 -2 12 5 9 5 -4 17 -1 26 7 12 9 15 9 9 1 -4 -7 -2 -13 3 -13 6
0 11 5 11 10 0 6 6 10 14 10 9 0 13 11 11 35 -1 24 4 39 14 45 9 5 13 10 8 10
-4 0 4 18 18 40 14 22 25 42 25 46 0 3 7 12 15 20 8 9 15 13 15 9 0 -4 7 0 15
9 8 8 15 19 15 25 0 6 3 10 8 9 4 -2 9 2 12 7 10 22 46 52 55 47 6 -3 4 1 -3
10 -9 12 -10 18 -2 23 8 5 8 11 -1 21 -6 8 -8 14 -3 14 19 0 31 47 19 69 -6
12 -14 18 -18 15 -4 -4 -7 1 -7 12 0 10 -14 35 -30 54 -16 19 -30 41 -30 48 0
7 -13 12 -30 12 -16 0 -30 5 -30 10 0 6 -13 10 -30 10 -16 0 -30 4 -30 9 0 4
-23 9 -52 10 -59 1 -63 3 -49 28 8 14 11 15 11 3 0 -8 7 -3 16 13 13 25 13 29
-1 43 -8 9 -13 20 -10 25 4 5 -5 9 -19 9 -14 0 -26 -6 -26 -12 0 -9 -4 -8 -10
2 -7 11 -10 11 -10 2 0 -7 -5 -10 -11 -6 -11 6 -10 -24 2 -65 6 -19 -28 -23
-35 -4 -4 9 -13 13 -22 9 -8 -3 -12 -2 -9 4 3 6 -3 10 -15 10 -11 0 -23 6 -26
14 -3 7 -16 12 -30 10 -13 -1 -24 1 -24 6 0 5 -8 7 -17 6 -10 -2 -20 1 -23 5
-7 10 -52 0 -45 -11 2 -4 -3 -7 -13 -7 -40 0 -53 -4 -47 -12 3 -6 -4 -8 -15
-6 -14 3 -20 -1 -20 -13 0 -15 -2 -15 -10 -2 -7 11 -10 11 -10 2 0 -7 -4 -10
-10 -7 -9 5 -12 -8 -9 -31 0 -4 -4 -10 -10 -13 -6 -4 -12 -19 -13 -33 -1 -15
-6 -24 -10 -22 -4 3 -8 -2 -8 -10 0 -9 -6 -16 -12 -16 -9 0 -9 -3 1 -9 8 -5
12 -18 9 -29 -3 -11 -2 -26 3 -33 4 -8 3 -19 -3 -26 -8 -10 -7 -12 4 -8 10 4
15 -4 17 -32 2 -21 3 -45 2 -53 0 -8 -1 -37 -2 -65 -1 -36 -7 -54 -20 -66 -15
-13 -16 -18 -7 -22 10 -4 10 -6 -1 -6 -11 -1 -11 -4 0 -18 10 -14 8 -13 -11 2
-43 35 -49 42 -42 50 4 4 3 5 -3 3 -5 -1 -28 14 -50 35 -39 37 -73 57 -125 73
-38 12 -51 13 -45 4 2 -4 -12 -7 -32 -6 -20 1 -38 7 -41 14 -2 7 -8 10 -13 7
-5 -4 -6 1 -3 9 3 9 1 16 -6 16 -6 0 -8 5 -5 10 3 6 2 10 -4 10 -5 0 -9 8 -8
18 0 12 10 18 30 19 16 0 33 7 38 14 7 12 9 11 9 -1 0 -12 2 -13 9 -1 5 8 14
10 21 6 9 -6 11 -4 6 4 -5 8 0 14 13 18 23 6 27 18 11 28 -8 5 -7 11 1 21 9
11 8 14 -2 14 -17 0 -17 72 0 78 6 2 11 8 11 13 0 6 -6 7 -12 3 -9 -5 -9 -2 1
9 7 9 11 17 7 17 -3 0 1 16 9 36 8 20 15 50 15 66 0 17 4 27 10 23 6 -3 10 1
10 9 0 9 5 16 11 16 5 0 8 4 4 9 -3 5 0 15 7 23 25 26 43 52 31 45 -8 -5 -8
-1 0 18 7 14 15 25 20 25 4 0 7 9 7 21 0 11 4 18 8 15 5 -3 9 1 9 9 0 8 -4 12
-8 10 -3 -3 -9 6 -11 20 -3 14 -1 25 6 25 6 0 3 5 -7 11 -15 9 -16 13 -5 27
10 12 10 14 0 8 -8 -5 -11 -1 -9 13 2 11 6 24 10 27 13 13 7 44 -9 44 -9 0
-12 5 -8 12 4 6 3 8 -4 4 -6 -3 -31 14 -56 38 -25 24 -46 40 -46 35 0 -5 -9 0
-20 11 -11 11 -25 20 -31 20 -5 0 -7 5 -4 10 3 6 2 10 -4 10 -5 0 -16 3 -25 6
-11 4 -16 0 -16 -12 0 -13 -3 -15 -8 -7 -11 17 -103 24 -121 9 -8 -6 -12 -6
-9 -1 3 6 -4 10 -17 10 -15 0 -20 -4 -15 -10 6 -7 2 -11 -10 -11 -10 0 -16 4
-13 9 3 5 -4 4 -17 -3 -12 -6 -28 -9 -36 -6 -8 3 -13 2 -10 -3 3 -5 0 -11 -8
-14 -18 -7 -28 29 -12 43 7 5 16 7 20 3 4 -4 4 1 0 11 -4 11 -3 17 2 14 5 -4
9 7 9 23 1 28 -13 36 -48 30 -4 -1 -3 8 3 19 11 20 9 21 -34 19 -42 -3 -44 -4
-34 -23z m88 -80 c0 -3 -4 -8 -10 -11 -5 -3 -10 -1 -10 4 0 6 5 11 10 11 6 0
10 -2 10 -4z m387 -598 c-3 -8 -6 -5 -6 6 -1 11 2 17 5 13 3 -3 4 -12 1 -19z"/>
<path d="M480 6751 c0 -7 -4 -10 -9 -6 -5 3 -12 1 -16 -5 -3 -5 -1 -10 6 -10
8 0 7 -5 -2 -17 -10 -11 -10 -14 -1 -9 8 5 12 -1 12 -18 0 -14 5 -26 10 -26 6
0 10 -8 10 -18 0 -10 9 -24 20 -32 11 -8 20 -22 20 -32 0 -10 5 -18 10 -18 6
0 10 -7 10 -16 0 -8 5 -12 10 -9 5 3 10 -1 10 -9 0 -9 5 -16 10 -16 6 0 10 -4
10 -9 0 -5 -9 -7 -20 -4 -11 3 -20 10 -20 15 0 5 -4 6 -10 3 -5 -3 -10 -1 -10
6 0 7 -3 10 -6 6 -3 -3 -17 4 -30 16 -41 38 -52 46 -58 40 -3 -4 -6 -1 -6 5 0
7 -11 12 -24 12 -18 0 -23 -5 -21 -17 2 -10 4 -28 4 -41 1 -15 5 -21 13 -16 7
5 9 2 6 -7 -3 -9 5 -25 18 -38 13 -13 24 -32 24 -43 0 -10 5 -16 10 -13 6 3
10 -3 10 -15 0 -12 5 -18 10 -15 6 3 10 -1 10 -9 0 -9 5 -16 10 -16 6 0 10 -7
10 -15 0 -8 5 -15 10 -15 6 0 10 -6 10 -13 0 -7 9 -19 20 -27 11 -8 20 -20 20
-28 0 -7 5 -10 10 -7 5 3 10 0 10 -7 0 -8 9 -21 20 -31 24 -20 27 -42 4 -33
-9 3 -18 6 -20 6 -2 0 -4 6 -4 14 0 9 -7 13 -20 11 -11 -2 -26 3 -34 11 -8 8
-22 14 -31 14 -10 0 -13 5 -9 12 5 8 2 9 -9 5 -12 -4 -17 -1 -17 11 0 15 -2
15 -10 2 -6 -10 -10 -11 -10 -2 0 6 -9 12 -21 12 -11 0 -17 5 -14 10 3 6 -1
10 -9 10 -9 0 -16 5 -16 10 0 6 -3 9 -7 9 -20 -3 -34 2 -28 11 3 6 -3 10 -15
10 -12 0 -18 5 -15 10 3 6 -3 10 -14 10 -11 0 -26 9 -34 20 -20 29 -53 22 -55
-12 -1 -15 3 -28 8 -28 6 0 8 -4 5 -10 -3 -5 -2 -10 3 -10 6 0 8 -10 6 -22 -2
-13 -1 -17 2 -10 4 9 12 2 24 -20 10 -18 15 -37 12 -42 -3 -5 0 -6 6 -2 7 4
16 -2 21 -17 6 -14 14 -26 19 -28 5 -2 16 -17 24 -34 8 -16 20 -29 27 -27 7 1
10 -2 7 -6 -3 -5 2 -19 12 -30 46 -55 52 -63 52 -73 0 -5 5 -7 10 -4 6 3 10
-1 10 -10 0 -8 7 -18 15 -21 8 -4 12 -11 8 -17 -3 -5 -2 -7 4 -4 11 7 53 -36
53 -54 0 -5 5 -7 10 -4 6 3 10 -1 10 -10 0 -9 5 -13 10 -10 6 3 10 1 10 -4 0
-6 7 -11 17 -11 22 0 12 -10 -16 -15 -12 -2 -19 0 -16 6 4 5 -3 9 -13 9 -11 0
-32 7 -48 14 -15 8 -31 13 -36 10 -4 -3 -8 1 -8 8 0 9 -3 9 -10 -2 -8 -13 -10
-13 -10 1 0 15 -10 20 -62 34 -5 2 -11 3 -15 4 -5 1 -1 6 7 12 13 9 12 10 -3
5 -9 -3 -29 -1 -42 4 -20 8 -27 6 -31 -5 -4 -8 -11 -12 -18 -8 -6 3 -3 -3 6
-14 10 -11 18 -25 18 -31 0 -7 5 -12 12 -12 6 0 9 -3 5 -6 -3 -4 1 -13 9 -21
8 -8 12 -19 9 -24 -4 -5 1 -6 9 -3 9 4 16 1 16 -6 0 -7 13 -24 30 -40 16 -15
26 -30 23 -34 -3 -3 1 -6 10 -6 10 0 17 -7 17 -16 0 -8 3 -13 8 -11 9 6 33
-19 25 -27 -4 -3 1 -6 10 -6 9 0 17 -7 17 -16 0 -8 5 -12 10 -9 6 3 10 -1 10
-10 0 -9 5 -13 10 -10 6 3 10 -2 10 -11 0 -10 3 -14 7 -11 3 4 15 -5 25 -20
10 -16 18 -23 18 -17 0 7 16 -3 35 -20 19 -18 35 -35 35 -39 0 -10 -39 -2 -51
10 -6 6 -17 9 -24 7 -6 -3 -17 2 -24 10 -7 8 -19 12 -27 9 -8 -3 -14 0 -14 7
0 6 -4 8 -10 5 -5 -3 -10 -2 -10 4 0 5 -9 8 -20 6 -13 -3 -20 2 -20 12 0 10
-6 13 -16 9 -10 -4 -22 1 -31 11 -8 11 -11 12 -7 3 6 -11 2 -10 -13 3 -11 9
-23 14 -26 10 -4 -3 -7 -1 -7 5 0 7 -7 12 -15 12 -8 0 -15 5 -15 10 0 6 -9 10
-20 10 -11 0 -20 5 -20 10 0 6 -13 10 -29 10 -24 0 -29 -4 -28 -20 1 -11 4
-20 8 -20 3 0 14 -15 24 -34 11 -19 23 -33 27 -30 4 3 8 0 8 -6 0 -6 18 -30
40 -52 22 -22 37 -45 34 -49 -3 -5 0 -9 6 -9 16 0 66 -52 62 -65 -2 -5 -1 -7
3 -3 4 4 18 -4 32 -18 13 -13 29 -24 36 -24 7 0 6 -4 -3 -10 -13 -9 -13 -10 0
-11 8 -1 18 -1 23 0 4 0 7 -6 7 -15 0 -8 4 -12 10 -9 5 3 10 -1 10 -9 0 -9 7
-16 16 -16 9 0 18 -9 21 -20 5 -18 15 -25 36 -21 5 1 6 -3 2 -9 -3 -5 -17 -9
-30 -8 -13 1 -22 5 -20 8 2 3 -5 12 -17 19 -14 9 -18 9 -13 1 4 -7 -4 -5 -17
4 -14 9 -28 13 -31 9 -4 -3 -7 2 -7 13 0 14 -2 16 -9 5 -6 -9 -11 -10 -15 -2
-4 6 -11 9 -16 6 -4 -3 -10 1 -13 8 -3 8 -27 12 -73 11 -38 0 -74 3 -81 8 -6
5 -14 5 -17 -1 -3 -5 -20 -7 -36 -5 -32 5 -38 -3 -17 -25 10 -11 9 -12 -3 -6
-8 5 -5 -3 8 -17 12 -13 19 -28 15 -31 -3 -4 0 -7 7 -7 7 0 11 -3 7 -6 -3 -3
5 -17 19 -30 13 -14 27 -35 30 -49 4 -16 11 -22 22 -18 10 4 13 2 8 -5 -4 -7
-2 -12 4 -12 6 0 8 -4 5 -10 -3 -5 1 -10 10 -10 9 0 14 -4 11 -9 -3 -5 2 -15
11 -22 14 -12 16 -12 9 1 -4 8 1 5 10 -7 9 -13 27 -23 39 -23 13 0 26 -6 28
-12 4 -10 6 -10 6 0 1 10 5 9 17 -3 9 -9 23 -14 30 -11 8 3 14 1 14 -5 0 -6 5
-7 10 -4 6 3 13 -1 16 -9 3 -9 11 -13 17 -9 6 3 7 1 3 -5 -5 -9 -13 -9 -27 -2
-11 6 -24 8 -29 5 -5 -3 -11 -1 -14 4 -4 5 -25 8 -47 7 -25 -2 -36 0 -27 5 10
7 9 9 -4 9 -9 0 -19 -4 -23 -10 -3 -6 -15 -6 -29 0 -13 5 -27 6 -31 2 -4 -4
-23 -8 -43 -8 -20 -1 -38 -7 -40 -13 -2 -6 -8 -11 -13 -11 -6 0 -7 5 -4 11 4
6 -1 5 -12 -2 -11 -6 -26 -21 -32 -32 -7 -11 -8 -16 -2 -12 6 3 11 -1 11 -9 0
-9 6 -16 13 -16 8 0 7 -4 -3 -10 -13 -9 -13 -10 0 -11 8 -1 19 -1 23 0 5 1 6
-3 2 -8 -3 -6 3 -16 14 -22 10 -7 17 -19 14 -26 -3 -8 -2 -13 3 -12 5 0 20 -2
32 -6 18 -6 20 -10 10 -16 -10 -7 -9 -9 4 -9 9 0 18 -5 20 -11 2 -5 12 -12 23
-13 11 -2 19 -8 18 -13 -1 -5 10 -10 25 -11 14 -1 28 -6 31 -11 4 -5 31 -10
61 -12 30 -1 60 -5 65 -8 6 -3 30 -7 55 -8 25 -1 66 -3 93 -4 26 -1 47 -4 47
-8 0 -5 -81 -8 -318 -10 -40 -1 -51 -4 -46 -13 5 -8 0 -7 -11 2 -11 9 -16 10
-11 3 5 -9 0 -13 -13 -13 -12 0 -21 -5 -21 -10 0 -6 -3 -9 -7 -9 -20 3 -34 -2
-28 -11 3 -5 -1 -10 -9 -10 -8 0 -18 -5 -22 -11 -9 -16 26 -89 44 -89 9 0 12
-3 9 -6 -8 -8 43 -54 60 -54 6 0 13 -5 15 -11 2 -5 12 -12 23 -13 11 -2 19 -9
17 -17 -2 -9 0 -10 11 -1 15 13 27 6 27 -15 0 -7 -11 -13 -26 -13 -14 0 -23
-4 -19 -10 3 -6 -4 -10 -17 -10 -13 0 -34 -9 -48 -20 -14 -11 -32 -20 -40 -20
-12 0 -11 -3 3 -11 9 -6 15 -14 12 -20 -4 -5 2 -9 13 -9 10 0 27 -9 37 -20 10
-11 24 -20 31 -20 7 0 19 -6 26 -12 7 -7 24 -14 38 -16 13 -1 27 -6 30 -11 3
-4 13 -7 22 -5 10 1 21 -2 24 -7 3 -5 2 -9 -3 -8 -19 3 -27 -2 -14 -10 10 -6
5 -11 -19 -16 -24 -5 -29 -10 -19 -16 12 -7 11 -9 -1 -9 -24 0 -50 -37 -50
-70 0 -21 5 -30 17 -30 9 0 13 -3 10 -7 -8 -8 23 -32 43 -33 8 0 26 -9 40 -20
14 -11 38 -20 53 -20 20 0 26 -4 21 -12 -5 -8 0 -7 11 2 11 9 16 10 11 3 -4
-8 -2 -13 8 -13 8 0 16 5 18 12 3 9 6 9 12 0 4 -7 2 -12 -3 -12 -6 0 -11 -7
-11 -16 0 -8 -5 -12 -10 -9 -6 3 -13 -1 -16 -9 -3 -9 -9 -14 -13 -12 -3 2 -12
-2 -19 -10 -7 -8 -10 -14 -5 -14 4 0 -2 -7 -13 -15 -11 -8 -14 -15 -6 -15 6 0
12 -7 12 -16 0 -8 4 -12 10 -9 5 3 10 1 10 -6 0 -7 3 -9 7 -6 3 4 12 2 20 -4
7 -6 13 -8 13 -4 0 4 11 0 25 -9 14 -10 48 -16 85 -17 33 -1 60 -6 60 -11 0
-5 -5 -6 -11 -3 -6 4 -9 0 -7 -11 2 -11 -2 -18 -9 -16 -7 1 -13 -5 -13 -14 0
-8 -4 -12 -10 -9 -5 3 -10 -1 -10 -10 0 -9 -4 -13 -10 -10 -5 3 -10 -1 -10 -9
0 -9 -4 -16 -10 -16 -5 0 -10 -9 -10 -19 0 -14 6 -19 20 -16 11 2 22 0 25 -6
4 -5 11 -9 16 -9 6 0 7 6 2 13 -5 8 1 7 17 -3 16 -10 47 -15 82 -14 32 0 55
-2 53 -7 -3 -4 5 -5 17 -2 22 4 23 4 4 -11 -11 -9 -16 -16 -10 -16 5 0 1 -5
-9 -11 -9 -6 -15 -14 -12 -20 4 -5 -1 -12 -9 -15 -9 -3 -13 -10 -10 -15 3 -5
0 -9 -6 -9 -6 0 -8 -5 -5 -10 3 -5 2 -10 -4 -10 -5 0 -8 -8 -6 -17 2 -10 4
-24 4 -30 1 -18 201 -18 201 0 0 8 4 7 10 -3 6 -10 10 -11 10 -2 0 6 8 12 18
12 10 0 24 6 32 13 28 25 -14 -27 -52 -65 -33 -32 -38 -42 -38 -83 0 -25 4
-44 9 -41 5 4 11 0 14 -6 3 -9 10 -7 22 7 9 11 14 15 11 9 -3 -7 4 -11 19 -11
14 0 25 3 25 7 0 5 8 7 18 5 9 -1 23 2 30 8 6 5 12 6 12 1 0 -5 5 -2 10 6 8
13 10 12 10 -2 0 -17 1 -17 18 0 11 9 18 19 16 22 -1 3 11 5 27 6 31 1 40 -19
14 -30 -8 -3 -12 -12 -9 -21 3 -8 1 -15 -6 -15 -6 0 -8 -4 -5 -10 3 -5 1 -10
-5 -10 -6 0 -9 -4 -6 -9 4 -5 1 -11 -4 -13 -6 -2 -12 -13 -13 -26 0 -12 -5
-22 -9 -22 -4 0 -8 -7 -8 -16 0 -14 2 -15 17 -3 14 12 15 12 9 1 -7 -11 -4
-12 10 -4 11 5 33 12 49 13 17 2 33 8 36 12 3 5 20 9 37 9 18 1 29 5 25 11 -4
6 2 8 15 5 12 -4 22 -2 22 3 0 4 7 5 17 2 9 -4 14 -2 11 3 -3 5 0 15 7 21 11
10 13 9 12 -7 -1 -11 -5 -20 -9 -20 -4 0 -5 -7 -2 -15 4 -8 -1 -17 -10 -21 -9
-3 -16 -15 -16 -25 0 -10 -3 -19 -7 -19 -12 0 -44 -61 -37 -71 3 -5 -1 -9 -9
-9 -20 0 -17 -65 3 -66 8 0 20 4 26 8 7 5 17 7 22 6 6 -2 18 6 27 17 9 11 14
14 10 7 -5 -10 -1 -10 19 -1 14 7 23 16 20 20 -3 5 1 9 8 9 7 0 29 10 48 23
50 34 70 40 70 21 0 -8 -4 -12 -10 -9 -5 3 -10 -3 -10 -15 0 -12 -4 -18 -10
-15 -6 4 -10 -5 -10 -20 0 -17 -4 -24 -12 -19 -6 4 -8 3 -4 -4 3 -6 2 -13 -3
-17 -6 -3 -7 -13 -4 -22 4 -11 3 -14 -5 -9 -8 5 -12 0 -12 -13 0 -11 -4 -23
-10 -26 -5 -3 -10 -17 -10 -31 0 -14 4 -23 9 -20 5 4 12 0 14 -6 4 -10 6 -10
6 0 1 6 12 12 26 12 14 0 25 5 25 10 0 6 7 10 16 10 8 0 22 7 31 15 8 8 19 12
25 9 7 -4 8 -2 4 4 -4 7 -1 12 8 12 9 0 16 5 16 10 0 6 7 10 15 10 9 0 18 7
21 15 4 8 10 12 15 9 5 -3 9 0 9 5 0 6 7 11 15 11 8 0 15 7 15 16 0 8 3 13 8
11 8 -6 33 18 26 25 -2 3 3 5 10 5 17 0 16 -16 -2 -36 -7 -7 -11 -20 -8 -27 3
-8 0 -13 -7 -11 -7 1 -11 -4 -10 -10 2 -7 -2 -13 -8 -13 -5 0 -8 -4 -5 -9 4
-5 1 -11 -4 -13 -6 -2 -13 -12 -14 -23 -2 -11 -9 -19 -16 -17 -6 1 -9 -2 -5
-8 3 -5 2 -10 -4 -10 -5 0 -8 -9 -6 -20 2 -11 0 -18 -5 -15 -5 3 -12 -10 -16
-30 -3 -19 -10 -32 -15 -29 -5 3 -9 -11 -9 -31 0 -20 -4 -34 -8 -31 -5 3 -9
-1 -9 -9 0 -8 5 -11 11 -8 6 3 5 0 -1 -8 -7 -7 -13 -30 -13 -51 0 -36 2 -38
30 -38 17 0 30 4 30 10 0 5 3 9 8 8 12 -5 92 25 92 34 0 4 4 8 10 8 11 0 60
47 54 53 -2 2 3 4 10 4 11 0 12 -5 5 -18 -5 -10 -9 -29 -9 -44 0 -14 -3 -24
-8 -21 -4 2 -7 -31 -7 -74 0 -43 3 -76 7 -73 5 2 8 -3 8 -12 0 -10 -5 -13 -12
-9 -7 5 -8 3 -4 -5 6 -9 13 -8 27 5 10 9 19 13 19 8 0 -5 5 -1 11 9 5 9 21 17
34 17 14 0 25 4 25 8 0 5 11 15 25 22 18 10 22 16 13 22 -9 5 -5 8 10 8 13 0
20 4 17 10 -3 5 1 10 10 10 9 0 13 5 10 11 -4 6 1 16 11 23 11 8 15 21 11 35
-3 15 -1 21 10 21 12 0 13 3 4 14 -8 10 -9 16 -1 21 5 3 10 15 10 26 0 10 6
19 13 19 8 0 7 4 -3 11 -13 9 -13 10 0 6 11 -2 14 -14 11 -43 -2 -21 -4 -50
-5 -64 -1 -14 -5 -31 -10 -39 -5 -8 -4 -16 5 -22 9 -5 9 -9 3 -9 -15 0 -16
-372 -2 -381 16 -11 48 2 48 19 0 8 3 12 7 9 3 -4 11 3 18 16 7 12 21 38 32
58 35 60 41 73 55 106 24 60 33 37 33 -80 0 -69 5 -125 13 -145 8 -20 9 -31 3
-27 -6 3 -11 2 -11 -4 0 -5 5 -13 11 -17 8 -4 7 -9 -2 -14 -10 -7 -10 -12 2
-26 8 -9 13 -19 12 -21 -9 -11 0 -12 20 -1 12 7 25 11 29 10 5 -1 7 4 5 11 -1
6 4 11 10 10 7 -2 12 0 12 5 -3 12 25 72 33 72 4 0 8 10 8 23 0 18 2 19 10 7
8 -12 10 -9 10 13 0 17 4 26 10 22 6 -4 10 -3 9 2 -1 4 -1 19 0 33 1 20 3 22
11 10 7 -11 10 -6 10 21 0 25 7 42 23 55 12 10 19 15 15 10 -4 -5 -3 -16 2
-25 5 -10 5 -23 -1 -32 -7 -12 -9 -12 -10 1 -1 8 0 22 1 30 1 11 -1 12 -10 4
-9 -9 -8 -19 4 -43 9 -17 17 -57 19 -90 1 -32 5 -57 10 -54 4 2 7 -1 7 -6 0
-6 -6 -11 -12 -11 -9 0 -8 -3 2 -10 8 -5 15 -19 15 -32 0 -13 4 -29 8 -35 5
-8 3 -13 -5 -13 -10 0 -10 -2 1 -9 7 -5 14 -20 14 -35 0 -14 5 -26 11 -26 6 0
5 -4 -3 -9 -11 -7 -10 -11 7 -20 25 -14 43 -14 22 -1 -12 8 -10 10 8 10 13 0
21 4 18 9 -3 5 3 20 14 34 15 19 17 27 8 30 -8 3 -6 6 5 6 9 1 17 9 17 19 0
10 6 24 12 31 11 11 10 12 -1 6 -8 -5 -4 7 9 25 13 18 17 30 9 25 -12 -8 -12
-6 -1 8 8 9 11 20 8 26 -3 5 1 11 9 15 10 4 15 20 15 52 0 36 3 45 14 41 10
-4 13 -1 9 9 -3 7 -1 14 4 14 14 0 14 -53 1 -62 -10 -6 -10 -8 0 -8 7 0 12
-14 12 -34 0 -19 6 -37 13 -39 10 -4 10 -6 0 -6 -7 -1 -13 -8 -13 -17 0 -9 5
-12 13 -8 7 5 6 0 -3 -11 -9 -11 -10 -16 -2 -11 9 5 12 -5 12 -38 0 -25 4 -46
8 -46 4 0 9 -15 10 -32 2 -18 7 -34 12 -36 6 -2 10 -12 10 -23 0 -10 6 -19 13
-19 9 0 9 -2 -1 -9 -10 -6 -9 -10 7 -14 21 -5 30 -27 10 -27 -5 0 -7 4 -4 10
3 6 -1 7 -10 4 -9 -4 -13 -9 -11 -12 8 -8 -45 -33 -55 -26 -5 3 -9 1 -9 -4 0
-9 -88 -52 -107 -52 -6 0 -13 -5 -15 -10 -2 -6 -13 -12 -25 -13 -12 0 -19 -5
-17 -9 3 -4 -3 -8 -13 -8 -10 0 -27 -7 -37 -15 -10 -8 -23 -12 -27 -9 -5 3 -9
0 -9 -5 0 -6 -12 -11 -26 -11 -14 0 -23 -4 -19 -10 3 -6 -4 -10 -17 -10 -13 0
-30 -6 -37 -13 -11 -10 -12 -9 -6 1 6 11 3 11 -16 0 -33 -19 -49 -35 -42 -42
4 -3 -1 -6 -11 -6 -9 0 -15 -4 -12 -8 3 -5 -6 -16 -19 -26 -14 -10 -22 -22
-20 -26 3 -4 -2 -11 -11 -14 -9 -4 -14 -13 -10 -21 3 -8 0 -15 -6 -15 -6 0 -3
-9 7 -20 10 -12 24 -19 31 -16 6 2 15 1 20 -4 8 -8 52 -20 80 -22 24 -2 6 -33
-22 -39 -16 -4 -23 -7 -15 -8 12 -1 11 -4 -2 -14 -16 -11 -16 -13 2 -29 11 -9
22 -13 26 -10 3 4 10 1 14 -6 4 -7 21 -14 38 -15 17 -1 29 -5 26 -9 -2 -5 4
-9 14 -9 10 -1 25 -2 33 -3 25 -2 25 -47 1 -53 -12 -3 -21 -11 -21 -18 0 -21
36 -55 59 -55 12 0 20 -4 17 -8 -2 -4 4 -9 15 -9 11 -1 17 2 14 7 -6 10 15 8
33 -3 7 -5 12 -3 12 5 0 10 2 10 9 -1 6 -9 10 -10 16 -2 5 9 10 9 20 1 9 -8
15 -8 20 0 3 5 14 10 23 9 11 0 12 -3 5 -6 -7 -2 -13 -13 -13 -23 0 -10 -6
-21 -13 -23 -6 -3 -2 -6 11 -6 12 -1 22 -5 22 -11 0 -5 20 -10 44 -10 26 0 46
-5 49 -12 4 -10 6 -10 6 0 1 6 6 12 12 12 5 0 8 -4 5 -9 -7 -11 13 -9 32 2 7
5 12 3 12 -5 0 -9 3 -9 10 2 8 13 10 13 11 -2 2 -27 4 -32 12 -45 5 -8 3 -13
-4 -13 -7 0 -4 -7 7 -15 18 -13 18 -14 1 -15 -10 0 -15 -5 -12 -10 4 -6 11 -7
17 -4 6 4 6 -1 -1 -14 -9 -17 -8 -23 7 -31 23 -12 53 -9 70 7 8 7 18 10 23 7
5 -4 9 -2 9 4 0 6 7 7 17 4 10 -4 14 -2 10 4 -4 7 -1 10 8 9 22 -3 28 -13 20
-33 -12 -27 -13 -53 -2 -46 5 3 13 -1 18 -8 5 -8 9 -9 9 -4 0 6 15 10 34 10
20 -1 34 3 33 9 -1 6 8 10 21 9 13 -2 21 1 18 6 -7 11 22 23 35 15 5 -3 9 0 9
5 0 6 5 11 10 11 6 0 10 -9 10 -20 0 -11 -6 -20 -12 -20 -10 0 -10 -2 0 -9 8
-4 13 -11 13 -15 -3 -19 0 -27 7 -22 5 3 27 6 50 7 23 2 42 7 42 12 0 4 5 5
10 2 6 -3 10 -1 10 6 0 7 3 10 6 6 8 -8 34 18 34 33 0 6 5 8 10 5 6 -3 10 0
10 8 0 18 37 29 47 15 3 -7 1 -8 -6 -4 -8 6 -10 0 -6 -21 4 -15 7 -45 8 -65 2
-37 3 -38 40 -38 28 0 36 3 31 13 -5 7 0 6 11 -3 13 -10 16 -11 11 -2 -5 9 -1
15 13 19 12 3 21 9 21 14 0 5 7 9 15 9 8 0 15 5 15 10 0 6 13 -3 29 -19 16
-16 32 -27 35 -24 3 4 6 -1 6 -11 0 -9 4 -15 9 -12 4 3 16 -3 26 -14 10 -11
23 -20 29 -20 6 0 4 5 -4 10 -13 8 -12 10 4 10 11 0 16 3 13 7 -4 3 3 11 16
18 12 6 21 17 19 23 -1 7 1 11 5 11 23 -4 43 2 38 10 -3 6 4 9 15 8 18 -1 24
-10 21 -30 0 -4 2 -6 6 -6 22 4 44 -2 39 -10 -3 -4 16 -8 43 -8 34 0 48 4 48
13 0 8 -5 14 -11 14 -6 0 -5 4 3 9 8 5 12 19 9 35 -3 14 -1 26 4 26 5 0 6 4 3
10 -3 5 -1 18 4 27 6 10 11 12 11 5 0 -6 11 -22 25 -34 14 -12 25 -28 25 -35
0 -8 5 -11 10 -8 5 3 10 2 10 -4 0 -6 7 -7 17 -4 10 4 14 2 10 -4 -5 -8 12
-11 53 -10 43 1 60 5 60 15 0 7 -4 11 -8 8 -4 -2 -8 12 -9 32 0 20 2 31 4 25
3 -7 12 -13 22 -13 9 0 22 -5 27 -10 6 -6 24 -13 40 -16 15 -3 33 -9 39 -13 5
-5 20 -7 33 -5 16 3 21 0 16 -8 -5 -10 -4 -10 6 -1 17 16 23 53 10 53 -7 0 -7
7 0 20 6 11 15 20 21 20 6 0 7 -4 4 -10 -6 -10 13 -14 48 -11 10 2 17 -5 17
-16 0 -15 2 -16 10 -3 7 12 10 12 10 1 0 -7 6 -11 14 -8 8 3 17 1 20 -6 3 -9
5 -8 5 1 1 8 6 10 14 6 7 -5 6 0 -3 11 -9 11 -10 16 -2 11 9 -5 12 5 12 43 0
30 5 51 13 54 9 4 9 6 0 6 -19 1 -16 21 3 21 8 0 13 4 10 9 -4 5 2 8 11 6 10
-2 18 -4 18 -5 0 -7 57 -5 61 2 3 4 18 8 33 8 15 0 33 6 40 13 11 10 12 9 6
-1 -6 -11 -3 -11 14 0 22 14 28 28 11 28 -5 0 -10 9 -10 20 0 21 24 28 35 10
4 -7 13 -6 27 1 13 7 18 7 14 1 -4 -6 2 -10 14 -9 11 1 20 6 20 12 0 5 4 4 9
-4 6 -10 10 -10 16 -1 6 9 10 9 16 -1 6 -10 9 -11 9 -1 0 6 9 12 20 12 11 0
20 5 20 10 0 6 7 10 15 10 25 0 17 39 -12 66 -18 17 -22 24 -11 20 10 -3 17
-1 15 3 -1 5 0 8 3 7 3 0 19 7 34 18 16 10 25 13 21 6 -4 -7 6 -5 24 4 17 9
31 14 31 11 0 -4 7 1 16 9 8 9 19 14 23 12 4 -3 13 4 20 16 7 11 8 17 2 13 -6
-3 -11 1 -11 9 0 9 -3 15 -7 15 -21 -3 -33 2 -33 16 0 8 -4 15 -10 15 -5 0
-10 5 -10 12 0 9 3 9 11 1 6 -6 23 -8 44 -3 19 4 37 5 41 1 4 -3 4 0 0 7 -4 7
-1 12 8 12 8 0 22 7 30 16 9 8 16 12 16 7 0 -4 4 -2 9 6 9 13 6 20 -26 56 -7
7 -13 18 -13 24 0 6 -9 15 -20 21 -11 6 -20 18 -20 26 0 8 -4 12 -10 9 -6 -3
-10 1 -10 9 0 11 -9 16 -30 16 -16 0 -30 5 -30 10 0 6 -13 10 -30 10 -16 0
-30 5 -30 10 0 6 -8 10 -19 10 -25 0 -31 31 -10 52 10 9 19 15 21 13 2 -3 5
34 7 81 1 59 -2 91 -11 102 -11 13 -11 14 1 8 8 -6 7 0 -4 18 -10 14 -13 26
-9 26 5 0 5 4 -1 8 -16 12 -45 72 -33 69 6 -1 13 4 16 12 3 9 0 11 -8 6 -10
-6 -11 -4 -4 6 5 8 9 24 9 35 0 12 7 30 15 40 8 10 10 15 3 11 -8 -5 -11 0
-10 13 1 11 5 20 10 20 5 0 4 6 -2 13 -6 8 -7 17 -3 21 7 7 8 16 11 79 0 15 6
27 11 27 6 0 9 -3 9 -7 -4 -27 3 -63 11 -58 6 3 10 -3 10 -13 0 -25 25 -74 33
-65 4 3 7 -6 7 -21 0 -16 4 -25 10 -21 6 3 10 -3 10 -14 0 -12 5 -21 10 -21 6
0 10 -9 10 -21 0 -11 5 -17 10 -14 6 3 10 -1 10 -9 0 -9 5 -16 10 -16 6 0 10
-6 10 -13 0 -7 13 -13 28 -13 30 -2 30 -1 37 86 1 19 3 35 4 35 2 0 4 10 5 22
2 13 -2 23 -7 23 -6 0 -3 8 5 18 15 16 14 47 -1 38 -4 -3 -7 4 -7 14 0 15 3
17 15 7 12 -10 13 -9 3 9 -8 16 -8 24 1 33 9 10 8 15 -7 27 -18 13 -15 18 9
15 6 -1 2 5 -8 13 -13 10 -15 16 -7 21 9 6 9 10 -1 17 -11 8 -11 9 1 5 8 -2
14 -12 12 -22 -2 -10 1 -14 7 -11 6 4 13 -5 17 -19 3 -14 11 -22 17 -18 6 4 7
1 2 -7 -4 -7 -2 -15 4 -20 7 -4 13 -16 14 -28 0 -11 5 -18 9 -16 4 3 8 -2 8
-11 0 -8 7 -18 15 -21 8 -4 15 -13 15 -21 0 -9 9 -24 21 -34 11 -9 21 -21 22
-26 2 -11 30 -4 39 10 4 7 5 22 1 34 -3 16 -1 23 8 23 9 0 10 3 4 8 -16 10
-17 54 -2 45 7 -4 6 0 -2 10 -11 14 -11 17 0 17 9 0 10 3 4 8 -16 10 -17 54
-2 45 7 -4 6 0 -2 10 -11 14 -11 17 0 17 9 0 10 3 4 8 -16 10 -17 54 -2 45 7
-4 6 0 -2 10 -11 14 -11 17 0 17 9 0 10 3 3 8 -10 6 -17 73 -17 144 1 15 -2
26 -6 24 -4 -3 -7 22 -7 54 0 32 3 57 7 54 4 -2 6 -20 5 -39 -1 -25 2 -34 11
-30 9 3 13 -7 13 -33 0 -21 6 -44 13 -51 10 -11 9 -12 -2 -6 -9 5 -6 -4 7 -22
12 -17 19 -33 15 -37 -3 -3 1 -6 11 -6 9 0 15 -4 11 -9 -3 -5 4 -12 15 -16 11
-3 20 -13 20 -21 0 -8 4 -13 9 -9 5 3 16 -1 24 -9 8 -8 17 -12 21 -9 3 4 6 2
6 -4 0 -6 14 -16 31 -22 17 -6 28 -15 24 -21 -3 -5 0 -7 8 -4 12 4 15 28 15
110 1 57 -2 102 -7 100 -4 -3 -8 11 -9 30 -2 23 1 33 8 29 5 -3 10 -16 10 -28
0 -18 2 -19 10 -7 8 13 10 12 10 -3 0 -11 9 -21 20 -24 11 -3 20 -10 20 -15 0
-5 5 -6 10 -3 6 3 10 1 10 -5 0 -6 4 -8 10 -5 5 3 10 1 10 -4 0 -6 12 -11 26
-11 14 0 23 -4 20 -8 -3 -5 0 -9 7 -9 7 0 24 -3 39 -6 16 -4 30 -3 34 5 5 7 2
8 -7 3 -11 -6 -12 -5 -1 6 13 14 17 33 4 25 -4 -2 -7 8 -6 22 1 15 -1 31 -4
37 -3 5 -7 23 -9 39 -2 17 -8 33 -15 37 -6 4 -8 14 -5 23 4 9 2 16 -3 16 -5 0
-12 11 -16 25 -3 14 -9 23 -13 21 -4 -3 -8 5 -8 17 -1 12 -7 23 -13 25 -5 2
-10 10 -10 18 0 8 -5 14 -11 14 -5 0 -7 5 -4 10 3 6 1 10 -5 10 -6 0 -8 5 -5
10 3 6 1 10 -4 10 -6 0 -11 7 -11 16 0 8 -4 13 -9 10 -5 -4 -8 5 -6 19 3 33
15 45 15 17 0 -12 3 -21 8 -21 21 4 32 -2 26 -13 -5 -8 -2 -9 9 -5 9 3 16 2
14 -2 -1 -5 2 -8 6 -7 5 0 13 -7 18 -16 6 -10 17 -18 24 -18 8 0 15 -4 15 -10
0 -5 5 -10 11 -10 6 0 17 -7 26 -15 8 -8 19 -13 24 -10 5 4 9 1 9 -4 0 -6 10
-11 23 -11 16 0 18 -3 8 -9 -16 -10 42 -21 71 -13 15 4 16 7 6 20 -8 10 -9 13
-1 9 8 -5 8 -1 0 17 -7 13 -14 23 -17 21 -3 -2 -7 6 -7 18 -1 12 -7 23 -13 25
-5 2 -10 12 -10 23 0 10 -4 19 -8 19 -4 0 -13 15 -20 33 -15 41 -15 50 -2 42
6 -4 7 -11 4 -17 -4 -6 -2 -8 4 -5 14 9 43 -3 36 -14 -3 -5 1 -6 9 -3 8 3 20
-2 27 -11 7 -8 19 -15 27 -15 8 0 12 -4 9 -8 -2 -4 5 -9 16 -9 12 -1 25 -8 29
-15 5 -7 9 -9 9 -4 0 6 6 1 14 -10 14 -19 15 -19 22 0 7 18 8 18 14 2 5 -17 8
-16 22 7 16 23 16 26 -3 45 -10 12 -19 28 -19 35 0 8 -7 20 -15 27 -9 7 -13
15 -11 17 3 3 -4 14 -14 26 -11 11 -17 24 -14 29 3 4 0 8 -5 8 -6 0 -11 6 -11
14 0 8 -6 16 -12 19 -7 3 -3 4 10 4 12 -1 22 -4 22 -7 0 -3 10 -7 22 -7 13 -1
24 -7 26 -13 2 -5 12 -10 22 -10 10 0 22 -4 25 -10 3 -5 12 -10 18 -10 7 0 6
4 -3 10 -12 7 -10 9 7 7 12 0 19 -5 17 -9 -4 -7 44 -13 69 -9 4 0 7 -3 7 -9 0
-25 16 -7 18 21 2 19 -2 28 -8 24 -6 -4 -10 5 -10 20 0 15 -4 24 -10 20 -6 -4
-10 5 -10 20 0 17 -4 24 -12 19 -6 -4 -8 -3 -4 4 3 6 1 16 -6 24 -27 29 -18
38 18 19 20 -11 45 -18 55 -16 11 2 17 0 14 -6 -6 -8 16 -12 68 -12 9 0 17 -7
17 -15 0 -13 3 -12 16 4 10 13 14 14 11 4 -4 -13 2 -15 30 -12 39 5 52 25 35
53 -7 10 -12 30 -12 44 0 14 -5 25 -11 25 -15 0 -39 26 -32 34 6 5 -11 10 -29
8 -12 -2 -17 27 -6 34 7 4 8 3 4 -4 -5 -8 4 -12 28 -12 20 0 36 -4 36 -10 0
-16 181 -12 203 4 20 16 23 30 4 23 -8 -3 -14 1 -14 9 0 7 5 10 11 7 6 -4 3 3
-7 14 -9 11 -14 23 -10 26 3 4 1 7 -6 7 -7 0 -9 5 -5 13 5 7 0 6 -11 -3 -17
-14 -18 -14 -6 9 8 15 9 21 2 17 -6 -4 -11 0 -11 9 0 9 -5 13 -11 9 -7 -4 -10
1 -7 12 3 16 13 19 64 20 34 0 66 4 72 8 7 4 12 2 12 -5 0 -7 7 -4 16 7 8 10
13 13 9 7 -3 -7 -1 -13 4 -13 6 0 11 4 11 9 0 6 9 8 19 6 11 -2 26 4 33 13 10
12 10 14 1 8 -9 -5 -13 0 -13 14 0 12 -4 18 -10 15 -5 -3 -10 1 -10 10 0 9 -4
13 -10 10 -5 -3 -10 1 -10 10 0 9 -5 13 -10 10 -6 -3 -10 1 -10 10 0 9 -4 13
-10 10 -6 -4 -7 1 -3 11 4 11 3 15 -5 10 -6 -3 -14 -2 -17 4 -4 6 -3 10 2 9 4
-1 34 -1 66 0 40 1 56 5 51 12 -4 7 1 7 16 -1 15 -8 20 -8 16 -1 -7 10 8 15
41 14 7 -1 10 3 7 8 -5 8 2 10 23 8 11 -1 21 33 15 53 -2 10 -8 15 -13 12 -5
-3 -9 2 -9 10 0 9 -7 16 -15 16 -9 0 -18 7 -21 15 -4 8 -10 12 -15 9 -5 -3 -9
1 -9 9 0 8 7 18 16 21 8 3 12 2 9 -4 -3 -6 -1 -10 4 -10 6 0 11 4 11 9 0 6 8
10 18 10 36 1 52 5 52 11 0 4 7 7 15 8 8 1 22 3 30 4 8 1 12 5 9 10 -3 4 2 8
11 8 9 0 13 5 10 10 -3 6 -1 10 5 10 15 0 40 26 40 42 0 10 3 9 10 -2 8 -13
10 -12 10 3 0 9 -4 17 -10 17 -5 0 -10 8 -10 18 0 24 -51 70 -74 66 -13 -2
-16 0 -8 8 8 8 7 14 -4 23 -13 9 -12 11 8 12 32 0 50 6 66 21 8 7 18 10 23 7
5 -4 9 -1 9 5 0 6 4 9 9 6 5 -3 11 1 15 9 3 8 12 15 21 15 8 0 15 5 15 11 0 5
4 8 9 4 5 -3 15 1 23 8 7 8 20 16 28 19 12 5 11 7 -5 14 -11 4 -23 11 -26 16
-3 5 -15 10 -26 11 -12 0 -19 6 -16 13 3 8 -4 11 -21 10 -14 -2 -23 1 -20 6 3
4 -9 11 -26 15 -21 4 -27 8 -19 14 7 4 17 5 21 3 4 -3 8 0 8 6 0 6 4 9 9 5 5
-3 13 0 16 6 4 5 13 8 21 5 9 -3 11 0 7 12 -3 9 -3 14 2 10 4 -4 17 -2 29 4
11 7 24 11 28 10 4 -1 5 5 2 13 -4 9 0 15 9 15 9 0 19 9 22 20 4 11 10 18 15
15 11 -7 20 19 20 56 0 20 -5 29 -16 29 -8 0 -12 5 -9 10 3 6 -3 10 -15 10
-12 0 -18 4 -15 10 3 6 -3 10 -14 10 -12 0 -21 6 -21 13 0 9 -3 8 -9 -2 -5 -8
-10 -9 -12 -3 -3 7 -74 12 -191 14 -103 2 -189 6 -192 9 -3 2 12 5 32 6 109 3
153 7 158 15 3 4 11 8 17 8 7 0 6 -4 -3 -10 -8 -5 -10 -10 -5 -10 6 1 19 7 29
15 21 16 40 10 29 -8 -4 -7 1 -6 11 2 10 8 32 15 49 16 19 0 31 5 30 12 -2 7
6 10 17 8 11 -2 20 1 20 6 0 5 8 9 18 7 11 -2 17 3 16 14 -1 10 1 17 5 16 3
-1 22 6 41 15 19 9 29 16 22 17 -10 0 -10 3 0 14 7 8 16 12 21 9 4 -2 7 -1 7
4 0 4 14 24 30 43 28 33 42 79 20 65 -5 -3 -10 2 -10 11 0 10 -3 15 -6 11 -3
-3 -25 0 -47 7 -23 7 -57 11 -74 10 -18 -1 -30 2 -27 7 8 13 -10 11 -25 -4
-11 -9 -13 -9 -7 0 9 17 -6 17 -23 1 -11 -10 -13 -10 -7 0 4 6 2 12 -3 12 -6
0 -11 -4 -11 -8 0 -4 -19 -7 -42 -7 -24 0 -50 -5 -59 -12 -13 -11 -16 -11 -16
2 0 8 4 12 9 9 4 -3 8 -1 8 4 0 6 16 13 35 16 19 4 35 11 35 15 0 5 13 8 29 7
17 -1 28 1 25 5 -5 9 25 21 37 14 5 -4 6 1 3 10 -4 9 -3 15 2 13 5 -2 9 -1 9
2 1 9 56 60 65 60 5 0 7 7 4 15 -4 8 1 17 10 21 9 3 13 10 10 15 -3 5 2 9 11
9 9 0 14 4 10 9 -3 5 2 17 11 25 8 9 12 16 8 16 -4 0 1 9 12 21 10 12 19 24
19 28 0 3 3 5 6 4 3 -1 6 4 6 12 0 9 -10 12 -29 10 -17 -3 -28 1 -28 8 0 7 -4
6 -10 -3 -8 -12 -10 -12 -10 -1 0 9 -4 10 -12 4 -7 -6 -35 -9 -61 -8 -26 1
-50 -2 -54 -8 -3 -5 -9 -3 -14 4 -7 11 -9 9 -9 -6 0 -15 -2 -17 -9 -6 -6 9
-11 10 -15 2 -4 -6 -16 -11 -27 -11 -10 0 -19 -4 -19 -8 0 -4 -10 -9 -22 -9
-13 -1 -24 -7 -26 -13 -2 -5 -12 -10 -23 -10 -10 0 -19 -5 -19 -12 0 -6 -3 -8
-6 -5 -4 3 -15 2 -25 -4 -13 -7 -19 -6 -19 1 0 6 7 13 15 16 8 4 12 10 9 15
-3 5 0 9 6 9 16 0 61 36 53 43 -3 3 6 9 21 13 14 3 26 10 26 16 0 5 23 31 50
58 28 27 51 52 50 55 0 3 2 5 5 5 10 -1 53 45 51 55 0 6 5 9 12 7 11 -2 16 10
13 31 0 4 4 6 11 5 6 -2 17 7 23 19 7 13 14 20 17 17 4 -3 9 4 13 15 3 12 11
21 16 21 5 0 9 5 9 11 0 5 -5 7 -12 3 -7 -4 -8 -3 -4 4 4 7 14 12 22 12 14 0
14 2 0 15 -8 8 -21 15 -28 15 -20 0 -68 -23 -68 -33 0 -5 -5 -5 -10 -2 -6 3
-13 -1 -16 -10 -4 -9 -13 -14 -20 -11 -8 3 -14 0 -14 -5 0 -6 -9 -9 -20 -6
-13 3 -20 0 -20 -9 0 -8 -9 -14 -20 -14 -11 0 -20 -5 -20 -11 0 -5 -5 -7 -11
-3 -6 3 -15 1 -19 -5 -4 -7 -19 -13 -34 -15 -16 -2 -31 -7 -34 -13 -4 -5 -19
-9 -34 -8 -20 1 -25 -2 -20 -14 3 -9 2 -13 -3 -9 -4 4 -15 3 -25 -2 -12 -6
-17 -5 -17 6 0 7 5 14 10 14 5 0 18 10 29 23 11 12 25 22 31 22 7 0 12 5 12
12 0 6 4 15 9 20 5 5 6 3 2 -4 -10 -17 2 -16 19 1 8 7 11 16 8 20 -4 3 -1 6 5
6 7 0 26 15 43 33 17 17 36 31 41 29 6 -2 8 4 5 13 -4 10 -1 15 10 15 9 0 13
3 10 7 -4 3 4 14 19 23 14 10 26 21 27 26 1 5 5 8 10 6 4 -1 6 1 6 5 -1 5 -1
15 0 23 1 11 3 12 9 3 5 -9 12 -1 21 22 7 20 17 33 22 30 8 -6 11 2 8 21 0 4
4 10 10 14 15 9 22 48 10 55 -5 4 -9 2 -9 -3 0 -6 -9 -8 -21 -5 -12 4 -25 0
-30 -8 -7 -12 -9 -12 -9 0 0 8 -8 4 -21 -10 -11 -13 -18 -18 -14 -11 10 19 -6
14 -26 -10 -12 -13 -19 -16 -19 -8 0 9 -5 7 -13 -5 -8 -10 -19 -15 -25 -11 -8
4 -12 0 -12 -11 0 -14 -2 -15 -9 -4 -6 10 -10 10 -16 1 -4 -6 -13 -9 -21 -6
-9 3 -14 -1 -14 -12 0 -13 -2 -14 -9 -3 -7 11 -9 11 -13 0 -2 -7 -9 -9 -15 -6
-12 7 40 67 57 67 5 0 17 14 27 30 9 17 21 30 25 30 4 0 8 7 8 16 0 8 5 12 10
9 6 -3 10 1 10 10 0 9 5 13 10 10 6 -3 10 2 10 12 0 10 9 25 20 33 12 8 32 34
46 58 14 23 27 42 30 42 3 0 2 -5 -2 -12 -4 -7 -3 -8 4 -4 6 4 8 14 5 23 -4
11 -3 14 5 9 8 -5 12 0 12 14 0 11 7 23 16 27 8 3 13 12 10 20 -3 8 -2 11 4 8
9 -6 36 34 32 48 -1 4 6 7 15 7 15 0 16 2 3 10 -10 6 -11 10 -2 10 6 0 12 8
12 18 0 10 6 24 13 31 10 11 10 13 0 7 -8 -4 -13 -1 -13 8 0 11 -8 15 -24 14
-14 -1 -22 -6 -20 -10 3 -4 -2 -8 -11 -8 -9 0 -13 -4 -10 -10 3 -5 -3 -10 -14
-10 -12 0 -21 -4 -21 -10 0 -5 -5 -10 -11 -10 -7 0 -19 -8 -28 -18 -9 -10 -33
-26 -53 -35 -20 -10 -44 -24 -53 -33 -11 -12 -15 -12 -15 -2 0 9 -2 10 -8 1
-10 -17 -121 -73 -141 -72 -9 1 -6 4 9 9 14 4 19 8 12 9 -11 1 0 16 71 92 9
10 14 19 10 19 -3 0 4 9 16 19 12 11 22 22 22 25 -3 24 0 30 9 16 8 -12 10
-11 10 8 0 12 5 22 10 22 6 0 10 10 10 23 0 18 2 19 10 7 8 -12 10 -11 10 8 0
12 3 22 8 22 9 0 32 49 32 69 0 13 2 14 9 2 6 -10 9 -2 9 23 0 31 -3 36 -24
36 -14 0 -27 -7 -30 -15 -4 -8 -10 -12 -15 -9 -5 3 -9 -1 -9 -8 0 -9 -3 -9
-10 2 -8 12 -10 10 -10 -10 0 -20 -2 -22 -10 -10 -9 13 -10 13 -11 0 -1 -8 -1
-18 0 -22 1 -8 -20 -5 -37 5 -7 5 -9 13 -6 19 5 7 2 8 -7 4 -8 -4 -3 2 10 13
13 12 19 21 15 21 -5 0 -1 5 9 11 9 5 17 17 17 24 0 8 5 15 11 15 5 0 8 4 5 9
-3 5 1 14 9 21 8 7 15 27 15 45 0 27 -3 32 -22 31 -13 -1 -22 -7 -20 -14 1 -7
-1 -11 -5 -11 -23 4 -43 -2 -38 -11 3 -5 -1 -10 -9 -10 -9 0 -16 -5 -16 -10 0
-6 -3 -9 -7 -9 -5 1 -15 1 -23 0 -13 -1 -13 -2 0 -11 12 -8 10 -10 -8 -10 -14
0 -21 -4 -17 -11 4 -6 1 -10 -6 -8 -27 3 -40 -1 -34 -11 4 -6 -7 -10 -27 -10
-25 0 -29 -3 -18 -10 12 -8 9 -10 -12 -10 -16 0 -28 -5 -28 -11 0 -5 -4 -8 -9
-4 -5 3 -17 -2 -25 -11 -9 -8 -16 -12 -16 -8 0 3 -7 1 -15 -6 -8 -6 -19 -9
-24 -5 -7 3 -8 0 -5 -10 5 -11 2 -14 -10 -9 -11 4 -16 1 -16 -11 0 -10 -5 -13
-12 -9 -6 4 -16 1 -22 -7 -6 -8 -33 -29 -61 -48 -27 -19 -61 -45 -74 -59 -19
-19 -25 -21 -32 -10 -7 10 -9 11 -9 0 0 -14 -24 -42 -36 -42 -3 0 -22 -16 -40
-35 -18 -20 -35 -34 -37 -33 -5 4 -46 -33 -95 -84 -20 -21 -42 -38 -49 -38 -7
0 -13 -7 -13 -16 0 -8 -4 -12 -10 -9 -6 3 -10 -1 -10 -10 0 -9 -4 -13 -10 -10
-6 3 -10 -1 -10 -10 0 -9 -4 -13 -10 -10 -6 3 -10 -1 -10 -10 0 -8 -7 -18 -15
-21 -8 -4 -12 -10 -9 -15 3 -5 2 -9 -3 -8 -4 1 -15 1 -23 0 -13 -1 -13 -2 0
-11 12 -8 12 -10 1 -10 -7 0 -24 -11 -37 -25 -13 -14 -21 -25 -18 -25 3 0 -8
-13 -23 -28 -15 -16 -31 -27 -34 -25 -4 1 -12 -11 -19 -27 -7 -17 -15 -29 -17
-26 -5 5 -36 -18 -68 -51 -12 -13 -26 -23 -30 -23 -4 0 -20 -13 -35 -30 -15
-16 -33 -30 -40 -30 -6 0 -8 -4 -5 -10 3 -5 -1 -10 -10 -10 -9 0 -13 -4 -10
-10 3 -5 2 -10 -3 -10 -5 0 -37 -26 -70 -59 -34 -32 -64 -56 -67 -52 -4 3 -5
1 -3 -4 4 -13 -98 -115 -115 -115 -8 0 -7 -4 3 -10 12 -8 10 -10 -10 -10 -20
0 -22 -2 -10 -10 12 -8 9 -10 -12 -10 -16 0 -28 -4 -28 -10 0 -5 -9 -10 -19
-10 -10 0 -22 -7 -25 -16 -4 -9 -13 -14 -21 -10 -9 3 -15 0 -15 -10 0 -8 -4
-12 -10 -9 -5 3 -10 -1 -10 -10 0 -9 -4 -13 -10 -10 -5 3 -10 -2 -10 -12 0
-15 -2 -16 -10 -3 -7 11 -10 11 -10 2 0 -7 -5 -10 -10 -7 -6 4 -10 3 -9 -2 3
-17 -1 -36 -7 -30 -3 3 -17 -5 -31 -19 -13 -13 -29 -21 -35 -18 -6 4 -8 3 -5
-3 4 -5 -5 -16 -18 -23 -13 -7 -22 -17 -19 -22 3 -4 -5 -8 -17 -8 -12 0 -20
-3 -16 -6 6 -7 -17 -34 -29 -34 -4 0 -16 -10 -28 -23 -12 -13 -28 -21 -35 -19
-8 3 -12 1 -9 -4 3 -5 -3 -17 -14 -26 -10 -10 -18 -16 -18 -13 0 3 -11 -6 -25
-20 -14 -14 -30 -25 -35 -25 -6 0 -10 -7 -10 -16 0 -8 -4 -13 -9 -10 -11 7
-33 -18 -24 -27 3 -4 -4 -7 -17 -7 -13 0 -20 -3 -17 -7 4 -3 -6 -17 -21 -31
-15 -14 -26 -30 -25 -34 2 -4 -3 -8 -11 -8 -8 0 -18 -9 -21 -20 -4 -11 -11
-17 -17 -14 -7 5 -9 1 -5 -9 4 -11 1 -17 -9 -17 -8 0 -12 -5 -9 -10 3 -6 -1
-13 -9 -16 -9 -3 -16 -17 -16 -31 0 -13 -4 -22 -8 -19 -9 6 -32 -85 -30 -119
1 -27 36 -75 54 -75 8 0 14 -4 14 -10 0 -5 9 -10 21 -10 13 0 18 -4 13 -12 -5
-8 0 -7 11 2 11 9 16 10 11 3 -5 -9 0 -13 14 -13 12 0 18 -4 15 -10 -3 -5 -2
-10 3 -10 5 0 9 -7 9 -15 0 -8 -4 -12 -9 -9 -4 3 -8 0 -8 -5 0 -6 5 -11 11
-11 5 0 7 -5 4 -10 -4 -6 -11 -7 -17 -4 -6 4 -6 -2 1 -15 7 -11 8 -21 3 -21
-4 0 -8 -18 -7 -39 1 -22 -3 -37 -8 -34 -4 3 -7 -1 -6 -8 5 -24 -12 -60 -24
-53 -9 5 -9 4 0 -6 9 -10 8 -16 -3 -27 -8 -8 -12 -19 -9 -24 4 -5 1 -9 -5 -9
-6 0 -8 -5 -4 -12 5 -7 3 -8 -5 -4 -8 5 -14 0 -18 -13 -3 -11 -9 -18 -14 -15
-5 3 -9 0 -9 -6 0 -13 -30 -46 -30 -33 0 4 -5 0 -11 -9 -12 -22 -65 -24 -86
-3 -8 8 -18 13 -23 10 -5 -3 -11 4 -15 15 -3 11 -10 20 -15 20 -8 0 -23 38
-21 53 1 4 -6 7 -14 7 -8 0 -14 6 -12 13 1 6 -4 11 -10 10 -7 -2 -13 3 -13 11
0 8 -5 16 -11 18 -8 3 -12 35 -12 91 1 48 -3 87 -8 87 -5 0 -9 8 -9 18 0 13
-2 14 -9 3 -6 -9 -11 -10 -15 -2 -5 8 -13 8 -27 1 -11 -6 -19 -7 -19 -1 0 12
-33 9 -42 -4 -5 -6 -8 -5 -8 3 0 9 -5 10 -18 3 -14 -7 -19 -6 -19 4 0 8 4 12
9 9 5 -4 4 3 -4 15 -7 12 -19 21 -26 21 -7 0 -11 4 -7 9 3 5 -1 15 -8 23 -8 7
-13 21 -11 31 1 9 -2 15 -7 11 -8 -5 -13 10 -10 30 1 4 -3 14 -9 21 -8 10 -8
15 1 20 8 6 8 10 -2 15 -10 7 -10 12 0 23 8 11 9 17 1 22 -7 4 -7 11 -2 18 5
7 8 25 7 40 -1 16 3 31 9 33 7 3 13 15 13 27 1 12 11 29 22 38 11 9 17 19 14
23 -4 3 -1 6 6 6 7 0 9 5 5 12 -4 6 -3 8 4 4 6 -3 21 5 34 18 27 30 106 42
135 21 9 -7 22 -11 29 -8 6 2 14 -3 17 -11 4 -9 12 -16 19 -16 7 0 24 -9 38
-20 35 -27 45 -25 45 9 1 16 -3 27 -7 25 -5 -3 -5 -11 -2 -17 4 -7 3 -9 -1 -4
-12 10 -14 47 -2 40 5 -3 4 4 -2 14 -6 11 -7 23 -4 27 3 3 2 6 -4 6 -6 0 -13
7 -17 15 -6 16 14 16 26 0 5 -6 8 -5 8 3 0 10 4 9 16 -2 8 -9 20 -14 25 -10
15 9 6 38 -19 55 -12 8 -19 19 -15 23 4 4 0 4 -10 0 -11 -4 -19 0 -23 10 -3 9
-16 16 -28 16 -17 0 -18 2 -6 10 13 8 12 10 -3 10 -11 0 -15 4 -11 12 5 8 1 9
-12 4 -18 -7 -18 -6 -1 11 14 14 19 15 26 5 5 -8 17 -13 27 -12 38 4 65 0 59
-10 -3 -5 1 -10 9 -10 9 0 16 -5 16 -11 0 -5 4 -7 10 -4 9 5 15 -15 11 -37 0
-5 4 -8 9 -8 14 0 13 -57 -1 -66 -9 -5 -10 1 -5 22 l6 29 -14 -25 c-16 -28
-15 -30 9 -34 9 -1 21 -9 26 -17 7 -11 9 -11 9 4 0 9 4 17 8 17 8 0 36 60 33
73 -1 4 5 10 13 13 8 3 12 13 9 24 -3 10 0 21 6 24 6 4 11 12 11 17 0 6 -4 7
-10 4 -5 -3 -10 -1 -10 4 0 6 5 11 11 11 5 0 7 5 4 10 -3 6 -1 10 6 10 9 0 9
3 0 14 -9 10 -9 16 -1 21 8 5 8 11 1 19 -6 7 -8 16 -4 19 3 4 1 7 -5 7 -7 0
-11 3 -11 8 5 29 -3 52 -18 52 -9 0 -13 3 -10 6 8 8 -61 64 -79 64 -8 0 -13 6
-11 13 1 6 -4 11 -10 10 -7 -2 -13 4 -13 13 0 8 -5 12 -11 9 -6 -4 -9 -1 -7 8
4 18 -47 67 -70 67 -10 0 -25 11 -36 24 -10 14 -23 23 -30 20 -7 -3 -18 2 -25
10 -6 7 -21 12 -31 9 -11 -3 -20 -1 -20 5 0 5 -13 8 -30 6 -18 -2 -30 1 -30 8
0 9 -3 9 -11 1 -7 -7 -20 -8 -33 -4 -23 9 -114 7 -123 -3 -3 -3 -13 0 -21 7
-9 6 -13 7 -10 2 4 -6 -5 -15 -18 -22 -13 -6 -24 -7 -24 -3 0 9 -40 1 -56 -12
-6 -4 -18 -6 -25 -3 -18 6 -53 -21 -44 -34 3 -6 -2 -11 -12 -11 -11 0 -25 -6
-32 -12 -11 -11 -12 -10 -6 2 6 12 5 13 -6 3 -7 -7 -24 -13 -39 -13 -20 0 -22
-2 -10 -10 13 -8 12 -10 -2 -10 -21 0 -24 -26 -5 -33 6 -3 -7 -6 -30 -6 -23
-1 -45 -6 -48 -11 -4 -6 -12 -7 -18 -3 -9 5 -9 3 0 -8 7 -8 11 -25 10 -37 -1
-17 -8 -22 -29 -22 -22 0 -28 -5 -28 -21 0 -11 4 -18 8 -15 5 3 9 -1 9 -8 0
-8 -7 -12 -15 -8 -9 3 -13 1 -9 -5 5 -7 -2 -10 -17 -9 -14 2 -24 -2 -23 -8 1
-6 -6 -10 -15 -10 -10 1 -14 -4 -11 -12 3 -8 13 -14 22 -14 15 -1 15 -2 0 -13
-9 -7 -14 -18 -11 -26 3 -8 0 -11 -7 -7 -7 5 -11 -1 -11 -13 0 -12 -4 -21 -9
-21 -10 0 -25 -48 -22 -70 2 -9 -5 -6 -18 9 -11 13 -18 28 -15 32 3 5 0 9 -6
9 -6 0 -8 5 -5 10 3 6 1 10 -5 10 -6 0 -8 5 -5 10 3 6 -1 10 -9 10 -9 0 -16 8
-16 19 0 11 -5 23 -11 27 -8 5 -7 10 4 16 19 10 12 39 -8 32 -7 -3 -16 0 -20
5 -3 6 -10 9 -15 6 -12 -8 -36 25 -23 33 5 4 10 14 10 23 0 11 -8 14 -28 11
-26 -4 -27 -2 -26 37 2 44 -1 48 -22 29 -11 -10 -13 -10 -7 0 5 8 -2 12 -23
12 -24 0 -31 4 -31 20 0 11 -5 20 -11 20 -5 0 -7 6 -3 13 5 7 0 6 -11 -3 -11
-9 -16 -10 -11 -2 6 11 -5 17 -26 13 -5 0 -8 3 -8 9 0 5 -15 10 -32 10 -25 0
-29 3 -18 10 10 6 11 10 3 10 -7 0 -13 6 -13 13 0 7 -11 14 -25 15 -14 1 -36
4 -50 5 -14 1 -25 4 -25 8 0 3 -11 6 -25 7 -54 5 -65 6 -65 12 0 3 -41 5 -90
5 -77 0 -90 -2 -85 -15 3 -9 -1 -7 -10 4 -12 15 -15 16 -15 5 0 -10 -8 -15
-22 -14 -12 1 -34 -4 -48 -12 -14 -7 -31 -13 -37 -13 -7 0 -18 -9 -25 -20 -8
-12 -24 -20 -41 -20 -16 0 -26 -4 -22 -10 5 -9 -6 -14 -26 -12 -3 1 -6 -6 -7
-14 -1 -7 -3 -21 -4 -29 -1 -8 -5 -12 -10 -9 -4 3 -8 -2 -8 -11 0 -9 -4 -14
-8 -11 -5 3 -14 -4 -22 -14 -8 -10 -17 -17 -22 -14 -4 3 -8 -2 -8 -10 0 -10
-6 -13 -15 -10 -8 4 -15 1 -15 -5 0 -6 -7 -11 -15 -11 -14 0 -19 -12 -16 -32
0 -5 -6 -8 -14 -8 -9 0 -12 -6 -9 -15 4 -9 0 -15 -7 -15 -11 0 -11 -3 1 -10
12 -8 12 -10 1 -10 -9 0 -12 -9 -9 -30 3 -17 0 -30 -6 -30 -6 0 -4 -5 4 -10
10 -6 11 -10 3 -10 -9 0 -10 -7 -3 -24 5 -13 6 -27 3 -30 -4 -3 -1 -6 5 -6 7
0 12 -10 12 -23 0 -13 3 -27 7 -31 4 -3 8 -14 9 -24 2 -9 8 -18 13 -20 6 -2
11 -10 11 -18 0 -8 5 -14 10 -14 6 0 10 -7 10 -16 0 -8 5 -12 10 -9 6 3 10 26
10 51 0 34 3 43 13 38 9 -6 9 -4 -1 8 -11 14 -10 19 8 31 16 11 18 16 8 20 -9
4 -8 6 3 6 9 1 29 7 44 15 15 8 38 12 52 10 13 -3 22 -1 20 4 -3 4 6 8 21 9
17 0 20 -1 8 -4 -15 -4 -16 -7 -5 -13 10 -7 8 -11 -11 -19 -14 -5 -21 -10 -16
-10 14 -1 -26 -30 -41 -31 -15 0 -63 -47 -63 -61 0 -6 -4 -7 -10 -4 -13 8 -13
-5 0 -25 7 -11 10 -11 10 -2 0 7 5 10 10 7 6 -3 10 2 11 12 0 10 3 13 5 6 4
-8 13 -9 30 -3 21 8 24 7 24 -13 0 -18 -2 -19 -10 -7 -7 11 -10 7 -10 -17 0
-17 -4 -34 -10 -38 -12 -8 -8 -65 6 -65 5 0 20 9 32 20 12 11 28 20 37 20 8 0
15 5 15 10 0 6 7 10 15 10 8 0 15 4 15 8 0 9 2 10 72 15 26 1 45 0 42 -4 -2
-4 7 -10 21 -13 14 -4 25 -11 25 -17 0 -6 5 -7 10 -4 5 3 10 1 10 -5 0 -6 11
-22 25 -36 14 -14 23 -30 19 -35 -3 -5 -2 -8 3 -7 4 2 9 -1 10 -6 1 -5 7 -13
15 -17 10 -7 10 -9 -2 -9 -12 0 -12 -2 -2 -9 7 -4 14 -25 15 -47 1 -21 7 -42
12 -46 6 -5 5 -8 -2 -8 -7 0 -13 -5 -13 -11 0 -5 5 -7 12 -3 7 5 8 3 3 -5 -4
-7 -8 -28 -9 -48 -2 -19 -8 -38 -15 -43 -7 -4 -12 -10 -12 -14 3 -23 0 -36 -8
-31 -6 3 -8 -4 -6 -15 2 -13 -1 -20 -11 -20 -13 0 -18 -12 -15 -32 0 -5 -2 -7
-7 -6 -4 1 -17 -3 -29 -10 -17 -9 -23 -10 -23 -1 0 8 -4 8 -15 -1 -10 -8 -15
-9 -15 -1 0 7 -8 8 -25 1 -17 -7 -25 -6 -25 1 0 8 -5 7 -15 -1 -8 -7 -12 -17
-8 -23 3 -5 1 -7 -5 -3 -15 9 -23 -7 -12 -24 5 -8 5 -22 -1 -32 -7 -12 -6 -18
1 -18 7 0 8 -6 0 -19 -7 -14 -7 -20 1 -23 6 -2 -8 -23 -30 -46 -23 -23 -41
-47 -41 -53 0 -5 -4 -7 -10 -4 -5 3 -10 -1 -10 -10 0 -10 -5 -13 -12 -9 -6 4
-8 3 -5 -4 9 -14 -3 -43 -14 -36 -5 3 -9 0 -9 -6 0 -21 -45 -55 -78 -58 -24
-3 -38 2 -51 17 -10 12 -23 21 -30 21 -6 0 -11 5 -11 10 0 6 -10 21 -23 34
-27 27 -62 95 -53 104 3 3 -1 13 -9 22 -8 9 -16 33 -17 53 -2 20 -6 37 -10 37
-5 0 -8 5 -8 11 0 5 5 7 12 3 7 -5 8 -3 2 7 -15 24 -13 99 2 99 8 0 14 5 14
10 0 6 5 10 11 10 5 0 7 -6 3 -12 -6 -10 -4 -10 7 0 7 6 21 12 32 12 10 0 15
5 12 10 -3 6 -1 10 6 10 19 0 49 41 49 67 0 17 4 22 13 17 9 -6 8 -4 -1 8 -7
9 -14 30 -14 47 -1 17 -4 31 -8 31 -4 0 -7 7 -8 15 -1 8 -3 22 -4 30 -1 8 -5
12 -10 9 -4 -3 -8 2 -8 11 0 10 -5 13 -12 9 -7 -4 -8 -3 -4 4 4 6 -2 19 -13
29 -11 9 -18 20 -15 25 3 4 -3 8 -12 8 -10 0 -15 3 -12 6 4 3 -14 26 -38 52
-24 25 -44 50 -44 56 0 6 -5 4 -10 -4 -8 -12 -10 -10 -10 10 0 20 -2 22 -10
10 -8 -13 -10 -12 -10 3 0 10 -4 15 -10 12 -5 -3 -10 1 -10 9 0 10 -6 13 -17
9 -9 -4 -14 -2 -10 4 6 10 -26 43 -44 43 -5 0 -7 5 -4 10 3 6 1 10 -5 10 -17
0 -70 46 -63 54 4 3 -4 6 -16 6 -12 0 -19 4 -16 10 3 6 -3 10 -15 10 -12 0
-18 5 -15 10 3 6 -1 10 -10 10 -9 0 -13 5 -10 10 3 6 -1 10 -9 10 -9 0 -16 7
-16 16 0 8 -4 12 -10 9 -5 -3 -10 -1 -10 4 0 6 -7 11 -15 11 -9 0 -18 7 -21
15 -4 8 -10 12 -15 9 -5 -3 -9 2 -9 11 0 9 -4 13 -10 10 -5 -3 -10 1 -10 9 0
9 -4 16 -9 16 -5 0 -16 6 -23 13 -38 35 -61 51 -53 37 8 -13 6 -13 -8 -1 -9 7
-15 17 -12 21 8 13 -22 19 -34 7 -10 -9 -12 -9 -9 2 2 8 -6 17 -17 19 -22 5
-130 112 -127 125 1 5 -2 6 -8 2 -5 -3 -13 1 -16 9 -3 8 -15 18 -26 22 -11 3
-17 8 -15 11 8 7 -67 81 -77 75 -5 -3 -7 2 -3 11 5 13 1 17 -14 17 -11 0 -18
4 -15 9 3 5 -3 11 -14 14 -11 3 -20 12 -20 21 0 9 -7 16 -16 16 -18 0 -44 24
-44 41 0 7 -3 9 -6 6 -4 -3 -20 8 -35 24 -16 17 -29 28 -29 24 0 -4 -6 -2 -13
4 -8 6 -17 8 -20 5 -4 -4 -4 3 -2 15 2 12 0 19 -4 17 -10 -7 -41 30 -33 40 4
4 2 4 -4 1 -6 -4 -20 3 -30 15 -11 12 -13 18 -5 13 10 -5 12 -4 7 3 -4 7 -14
12 -22 12 -8 0 -14 7 -14 15 0 8 -5 15 -11 15 -5 0 -7 5 -4 10 3 6 1 10 -5 10
-13 0 -140 128 -140 141 0 5 -4 8 -8 6 -5 -1 -23 13 -39 31 -17 17 -36 32 -43
32 -6 0 -8 5 -5 10 3 6 -1 10 -9 10 -8 0 -20 9 -26 20 -6 11 -18 20 -26 20 -8
0 -12 5 -9 10 3 6 0 10 -7 10 -8 0 -20 9 -28 20 -8 11 -20 20 -28 20 -7 0 -10
5 -6 12 4 6 3 8 -3 5 -12 -8 -53 25 -53 41 0 6 -7 9 -15 6 -8 -4 -15 -1 -15 5
0 6 -4 11 -10 11 -10 0 -36 20 -68 50 -9 8 -18 14 -21 14 -3 -1 -5 2 -3 8 1 5
-2 7 -8 3 -5 -3 -10 -1 -10 5 0 6 -4 8 -10 5 -5 -3 -10 -2 -10 3 0 5 -8 13
-17 16 -29 10 -63 32 -58 37 2 3 -5 6 -15 7 -43 4 -49 6 -44 14 3 4 -7 8 -23
8 -22 0 -25 2 -13 10 12 8 9 10 -12 10 -16 0 -28 5 -28 10 0 6 -7 10 -15 10
-8 0 -23 8 -33 18 -10 9 -34 26 -55 37 -20 11 -37 24 -37 29 0 5 -3 6 -6 3 -4
-4 -15 3 -25 15 -11 11 -19 16 -19 9z m6957 -226 c9 -25 -4 -29 -17 -6 -7 15
-7 21 0 21 6 0 13 -7 17 -15z m-17 -26 c0 -5 -7 -9 -15 -9 -15 0 -20 12 -9 23
8 8 24 -1 24 -14z m-6705 -988 c-3 -2 -16 -6 -28 -8 -15 -2 -18 0 -9 5 14 9
45 12 37 3z m6575 -1 c0 -5 -2 -10 -4 -10 -3 0 -8 5 -11 10 -3 6 -1 10 4 10 6
0 11 -4 11 -10z m-3483 -132 c-3 -8 -6 -5 -6 6 -1 11 2 17 5 13 3 -3 4 -12 1
-19z m-3137 -156 c0 -5 -7 -9 -15 -9 -8 0 -12 4 -9 9 3 4 9 8 15 8 5 0 9 -4 9
-8z m220 -96 c14 -18 14 -18 -7 -6 -12 8 -19 18 -16 23 3 4 6 7 7 5 1 -2 8
-12 16 -22z m6256 17 c-2 -3 -6 -3 -8 -1 -2 2 -16 -5 -32 -15 -15 -10 -30 -16
-34 -13 -3 3 -14 -1 -24 -11 -22 -19 -24 -8 -3 13 8 9 19 12 25 9 5 -3 19 0
30 8 17 12 57 20 46 10z m-6202 -25 c-7 -11 -34 -10 -34 1 0 6 9 9 19 8 11 0
17 -5 15 -9z m64 -23 c3 -3 -9 -5 -26 -5 -18 0 -32 5 -32 10 0 10 47 6 58 -5z
m6012 3 c0 -4 -9 -8 -20 -8 -11 0 -20 4 -20 8 0 4 9 8 20 8 11 0 20 -4 20 -8z
m-5040 -2058 c0 -5 -2 -10 -4 -10 -3 0 -8 5 -11 10 -3 6 -1 10 4 10 6 0 11 -4
11 -10z m4050 -20 c0 -5 -2 -10 -4 -10 -3 0 -8 5 -11 10 -3 6 -1 10 4 10 6 0
11 -4 11 -10z m-1180 -241 c0 -4 -7 -10 -16 -13 -9 -3 -12 -11 -8 -18 5 -10 4
-10 -6 -1 -16 15 -7 40 14 40 9 0 16 -4 16 -8z m-2566 -15 c3 -8 2 -12 -4 -9
-6 3 -10 10 -10 16 0 14 7 11 14 -7z m179 -309 c-3 -9 -8 -14 -10 -11 -3 3 -2
9 2 15 9 16 15 13 8 -4z m3067 -95 c0 -5 -5 -10 -11 -10 -5 0 -7 5 -4 10 3 6
8 10 11 10 2 0 4 -4 4 -10z m-474 -78 c-3 -5 2 -21 10 -36 7 -16 14 -42 15
-60 0 -26 2 -28 9 -11 7 16 9 11 9 -21 1 -36 -1 -40 -21 -38 -13 1 -24 3 -25
4 -2 2 -9 3 -15 4 -7 0 -14 17 -15 36 -2 26 0 31 7 20 6 -9 10 -10 10 -3 0 6
-4 15 -10 18 -5 3 -10 11 -10 16 0 6 5 7 10 4 6 -4 9 3 6 17 -3 22 9 58 20 58
3 0 3 -4 0 -8z m474 -16 c0 -3 -4 -8 -10 -11 -5 -3 -10 -1 -10 4 0 6 5 11 10
11 6 0 10 -2 10 -4z m-2310 -48 c0 -9 4 -8 10 2 6 9 10 10 10 3 0 -6 10 -13
23 -15 12 -2 21 -9 20 -15 -2 -7 -3 -27 -5 -45 -1 -18 -6 -39 -11 -45 -6 -9
-5 -13 3 -13 8 0 11 -3 8 -6 -4 -3 -2 -19 2 -35 5 -16 6 -29 2 -29 -4 0 -20
-11 -35 -24 -17 -15 -35 -22 -44 -19 -11 4 -14 2 -9 -5 4 -8 0 -12 -11 -12
-10 0 -29 -9 -43 -20 -14 -11 -33 -20 -43 -20 -10 0 -15 -4 -12 -10 3 -5 -3
-10 -14 -10 -12 0 -21 5 -21 11 0 5 5 7 10 4 6 -3 10 -3 11 2 3 31 11 58 20
63 5 4 9 13 7 21 -2 8 2 13 8 12 6 -1 10 8 9 20 -1 12 2 25 7 28 5 3 10 19 11
35 1 16 6 32 11 36 5 3 10 22 11 41 1 19 5 39 9 46 10 15 56 14 56 -1z m1590
1 c0 -5 -9 -9 -20 -9 -11 0 -20 4 -20 8 0 4 9 8 20 9 11 1 20 -2 20 -8z
m-2065 -918 c3 -5 2 -12 -3 -15 -5 -3 -9 1 -9 9 0 17 3 19 12 6z"/>
</g>
</svg>
