<svg width="1329" height="1001" viewBox="0 0 1329 1001" fill="none" xmlns="http://www.w3.org/2000/svg">
<path d="M227.266 65.3084L330.65 125.053C345.357 133.552 354.417 149.258 354.417 166.256V285.744C354.417 302.742 345.357 318.448 330.65 326.947L227.266 386.692C212.56 395.19 194.44 395.19 179.734 386.692L76.3496 326.947C61.6429 318.448 52.5832 302.742 52.5832 285.744V166.256C52.5832 149.258 61.6429 133.552 76.3496 125.053L179.734 65.3084C194.44 56.8096 212.56 56.8096 227.266 65.3084Z" fill="#D7EAE1" fill-opacity="0.2"/>
<path fill-rule="evenodd" clip-rule="evenodd" d="M233.208 7.96765C214.825 -2.65589 192.175 -2.65588 173.792 7.96766L29.708 91.232C11.3246 101.856 0 121.489 0 142.736V309.264C0 330.511 11.3247 350.145 29.708 360.768L173.792 444.032C192.175 454.656 214.825 454.656 233.208 444.032L377.292 360.768C395.675 350.145 407 330.511 407 309.264V142.736C407 121.489 395.675 101.856 377.292 91.232L233.208 7.96765ZM173.792 55.0077C192.175 44.3842 214.825 44.3842 233.208 55.0077L336.592 114.752C354.975 125.376 366.3 145.009 366.3 166.256V285.744C366.3 306.991 354.975 326.625 336.592 337.248L233.208 396.992C214.825 407.616 192.175 407.616 173.792 396.992L70.408 337.248C52.0247 326.625 40.7 306.991 40.7 285.744V166.256C40.7 145.009 52.0246 125.376 70.408 114.752L173.792 55.0077Z" fill="#D7EAE1" fill-opacity="0.2"/>
<path d="M915.347 650.846L918.789 648.864L919.538 650.164L921.259 649.173C921.91 648.798 922.598 648.516 923.305 648.327L922.918 646.878C924.609 646.426 926.391 646.426 928.082 646.878L927.695 648.327C928.402 648.516 929.09 648.798 929.741 649.173L931.462 650.164L932.211 648.864L935.653 650.846L934.905 652.146L938.347 654.127L939.096 652.828L942.538 654.809L941.79 656.109L945.232 658.091L945.981 656.791L949.423 658.773L948.675 660.073L952.117 662.055L952.866 660.755L956.308 662.737L955.56 664.037L959.002 666.019L959.751 664.719L963.193 666.701L962.445 668.001L965.887 669.983L966.636 668.683L970.078 670.665L969.33 671.965L972.772 673.947L973.521 672.647L976.963 674.629L976.215 675.929L979.658 677.911L980.406 676.611L983.848 678.593L983.1 679.893L986.543 681.875L987.291 680.575L990.733 682.557L989.985 683.857L993.428 685.839L994.176 684.539L997.618 686.521L996.87 687.821L1000.31 689.803L1001.06 688.503L1004.5 690.485L1003.76 691.785L1007.2 693.767L1007.95 692.467L1011.39 694.449L1010.64 695.749L1014.08 697.731L1014.83 696.431L1018.27 698.413L1017.53 699.713L1020.97 701.695L1021.72 700.395L1025.16 702.377L1024.41 703.677L1027.85 705.659L1028.6 704.359L1032.04 706.341L1031.3 707.641L1034.74 709.623L1035.49 708.323L1038.93 710.305L1038.18 711.605L1041.62 713.587L1042.37 712.287L1045.81 714.269L1045.07 715.568L1048.51 717.55L1049.26 716.251L1052.7 718.232L1051.95 719.532L1055.39 721.514L1056.14 720.214L1059.58 722.196L1058.84 723.496L1062.28 725.478L1063.03 724.178L1066.47 726.16L1065.72 727.46L1069.16 729.442L1069.91 728.142L1073.35 730.124L1072.61 731.424L1074.33 732.415C1074.98 732.792 1075.57 733.247 1076.09 733.766L1077.15 732.704C1078.39 733.945 1079.29 735.494 1079.74 737.19L1078.3 737.579C1078.49 738.288 1078.59 739.027 1078.59 739.782V741.763H1080.09V745.726H1078.59V749.689H1080.09V753.651H1078.59V757.614H1080.09V761.577H1078.59V765.54H1080.09V769.502H1078.59V773.465H1080.09V777.428H1078.59V781.391H1080.09V785.354H1078.59V789.316H1080.09V793.279H1078.59V797.242H1080.09V801.205H1078.59V805.167H1080.09V809.13H1078.59V813.093H1080.09V817.056H1078.59V821.019H1080.09V824.981H1078.59V828.944H1080.09V832.907H1078.59V836.87H1080.09V840.833H1078.59V844.795H1080.09V848.758H1078.59V852.721H1080.09V856.684H1078.59V860.646H1080.09V864.609H1078.59V868.572H1080.09V872.535H1078.59V876.498H1080.09V880.46H1078.59V884.423H1080.09V888.386H1078.59V892.349H1080.09V896.311H1078.59V900.274H1080.09V904.237H1078.59V906.218C1078.59 906.973 1078.49 907.712 1078.3 908.421L1079.74 908.81C1079.29 910.506 1078.39 912.055 1077.15 913.296L1076.09 912.234C1075.57 912.753 1074.98 913.208 1074.33 913.585L1072.61 914.576L1073.35 915.876L1069.91 917.858L1069.16 916.558L1065.72 918.54L1066.47 919.84L1063.03 921.822L1062.28 920.522L1058.84 922.504L1059.58 923.804L1056.14 925.786L1055.39 924.486L1051.95 926.468L1052.7 927.767L1049.26 929.749L1048.51 928.45L1045.07 930.431L1045.81 931.731L1042.37 933.713L1041.62 932.413L1038.18 934.395L1038.93 935.695L1035.49 937.677L1034.74 936.377L1031.3 938.359L1032.04 939.659L1028.6 941.641L1027.85 940.341L1024.41 942.323L1025.16 943.623L1021.72 945.605L1020.97 944.305L1017.53 946.287L1018.27 947.587L1014.83 949.569L1014.08 948.269L1010.64 950.251L1011.39 951.551L1007.95 953.533L1007.2 952.233L1003.76 954.215L1004.5 955.515L1001.06 957.497L1000.31 956.197L996.87 958.179L997.618 959.479L994.176 961.461L993.428 960.161L989.985 962.143L990.733 963.443L987.291 965.425L986.543 964.125L983.1 966.107L983.848 967.407L980.406 969.389L979.658 968.089L976.215 970.071L976.963 971.371L973.521 973.353L972.772 972.053L969.33 974.035L970.078 975.335L966.636 977.317L965.887 976.017L962.445 977.999L963.193 979.299L959.751 981.281L959.002 979.981L955.56 981.963L956.308 983.263L952.866 985.245L952.117 983.945L948.675 985.927L949.423 987.227L945.981 989.209L945.232 987.909L941.79 989.891L942.538 991.19L939.096 993.172L938.347 991.872L934.905 993.854L935.653 995.154L932.211 997.136L931.462 995.836L929.741 996.827C929.09 997.202 928.402 997.484 927.695 997.673L928.082 999.122C926.391 999.574 924.609 999.574 922.918 999.122L923.305 997.673C922.598 997.484 921.91 997.202 921.259 996.827L919.538 995.836L918.789 997.136L915.347 995.154L916.095 993.854L912.653 991.872L911.904 993.172L908.462 991.19L909.21 989.891L905.768 987.909L905.019 989.209L901.577 987.227L902.325 985.927L898.883 983.945L898.134 985.245L894.692 983.263L895.44 981.963L891.998 979.981L891.249 981.281L887.807 979.299L888.555 977.999L885.113 976.017L884.364 977.317L880.922 975.335L881.67 974.035L878.228 972.053L877.479 973.353L874.037 971.371L874.785 970.071L871.343 968.089L870.594 969.389L867.152 967.407L867.9 966.107L864.457 964.125L863.709 965.425L860.267 963.443L861.015 962.143L857.572 960.161L856.824 961.461L853.382 959.479L854.13 958.179L850.687 956.197L849.939 957.497L846.496 955.515L847.245 954.215L843.802 952.233L843.054 953.533L839.611 951.551L840.36 950.251L836.917 948.269L836.169 949.569L832.726 947.587L833.475 946.287L830.032 944.305L829.284 945.605L825.841 943.623L826.59 942.323L823.147 940.341L822.399 941.641L818.956 939.659L819.705 938.359L816.262 936.377L815.514 937.677L812.071 935.695L812.82 934.395L809.377 932.413L808.629 933.713L805.186 931.731L805.935 930.432L802.492 928.45L801.744 929.749L798.301 927.768L799.05 926.468L795.607 924.486L794.859 925.786L791.416 923.804L792.165 922.504L788.722 920.522L787.974 921.822L784.531 919.84L785.28 918.54L781.837 916.558L781.089 917.858L777.646 915.876L778.395 914.576L776.673 913.585C776.02 913.208 775.429 912.753 774.909 912.234L773.85 913.296C772.606 912.055 771.711 910.506 771.256 908.81L772.705 908.421C772.514 907.712 772.414 906.973 772.414 906.218V904.237H770.914V900.274H772.414V896.312H770.914V892.349H772.414V888.386H770.914V884.423H772.414V880.46H770.914V876.498H772.414V872.535H770.914V868.572H772.414V864.609H770.914V860.646H772.414V856.684H770.914V852.721H772.414V848.758H770.914V844.795H772.414V840.833H770.914V836.87H772.414V832.907H770.914V828.944H772.414V824.981H770.914V821.019H772.414V817.056H770.914V813.093H772.414V809.13H770.914V805.167H772.414V801.205H770.914V797.242H772.414V793.279H770.914V789.316H772.414V785.354H770.914V781.391H772.414V777.428H770.914V773.465H772.414V769.502H770.914V765.54H772.414V761.577H770.914V757.614H772.414V753.651H770.914V749.689H772.414V745.726H770.914V741.763H772.414V739.782C772.414 739.027 772.514 738.288 772.705 737.579L771.256 737.19C771.711 735.494 772.606 733.945 773.85 732.704L774.909 733.766C775.429 733.247 776.02 732.792 776.673 732.415L778.395 731.424L777.646 730.124L781.089 728.142L781.837 729.442L785.28 727.46L784.531 726.16L787.974 724.178L788.722 725.478L792.165 723.496L791.416 722.196L794.859 720.214L795.607 721.514L799.05 719.532L798.301 718.232L801.744 716.251L802.492 717.55L805.935 715.568L805.186 714.269L808.629 712.287L809.377 713.587L812.82 711.605L812.071 710.305L815.514 708.323L816.262 709.623L819.705 707.641L818.956 706.341L822.399 704.359L823.147 705.659L826.59 703.677L825.841 702.377L829.284 700.395L830.032 701.695L833.475 699.713L832.726 698.413L836.169 696.431L836.917 697.731L840.36 695.749L839.611 694.449L843.054 692.467L843.802 693.767L847.245 691.785L846.496 690.485L849.939 688.503L850.687 689.803L854.13 687.821L853.382 686.521L856.824 684.539L857.572 685.839L861.015 683.857L860.267 682.557L863.709 680.575L864.457 681.875L867.9 679.893L867.152 678.593L870.594 676.611L871.343 677.911L874.785 675.929L874.037 674.629L877.479 672.647L878.228 673.947L881.67 671.965L880.922 670.665L884.364 668.683L885.113 669.983L888.555 668.001L887.807 666.701L891.249 664.719L891.998 666.019L895.44 664.037L894.692 662.737L898.134 660.755L898.883 662.055L902.325 660.073L901.577 658.773L905.019 656.791L905.768 658.091L909.21 656.109L908.462 654.809L911.904 652.828L912.653 654.127L916.095 652.146L915.347 650.846Z" stroke="#D7EAE1" stroke-width="3" stroke-dasharray="4 4"/>
<path d="M1236.99 286.749C1238.85 285.668 1241.15 285.668 1243.01 286.749L1314.09 328.016C1315.94 329.089 1317.08 331.066 1317.08 333.204V415.796C1317.08 417.934 1315.94 419.911 1314.09 420.984L1243.01 462.251C1241.15 463.332 1238.85 463.332 1236.99 462.251L1165.91 420.984C1164.06 419.911 1162.92 417.934 1162.92 415.796V333.204C1162.92 331.066 1164.06 329.089 1165.91 328.016L1236.99 286.749Z" fill="#D7EAE1" fill-opacity="0.2"/>
</svg>
