<svg width="16" height="16" viewBox="0 0 16 16" fill="none" xmlns="http://www.w3.org/2000/svg">
<path fill-rule="evenodd" clip-rule="evenodd" d="M7.99996 9.33329C8.73634 9.33329 9.33329 8.73634 9.33329 7.99996C9.33329 7.26358 8.73634 6.66663 7.99996 6.66663C7.26358 6.66663 6.66663 7.26358 6.66663 7.99996C6.66663 8.73634 7.26358 9.33329 7.99996 9.33329Z" stroke="#4F4F4F" stroke-linecap="round" stroke-linejoin="round"/>
<path fill-rule="evenodd" clip-rule="evenodd" d="M13.3333 9.33329C14.0697 9.33329 14.6667 8.73634 14.6667 7.99996C14.6667 7.26358 14.0697 6.66663 13.3333 6.66663C12.597 6.66663 12 7.26358 12 7.99996C12 8.73634 12.597 9.33329 13.3333 9.33329Z" stroke="#4F4F4F" stroke-linecap="round" stroke-linejoin="round"/>
<path fill-rule="evenodd" clip-rule="evenodd" d="M2.66671 9.33329C3.40309 9.33329 4.00004 8.73634 4.00004 7.99996C4.00004 7.26358 3.40309 6.66663 2.66671 6.66663C1.93033 6.66663 1.33337 7.26358 1.33337 7.99996C1.33337 8.73634 1.93033 9.33329 2.66671 9.33329Z" stroke="#4F4F4F" stroke-linecap="round" stroke-linejoin="round"/>
</svg>
