<svg width="60" height="70" viewBox="0 0 60 70" fill="none" xmlns="http://www.w3.org/2000/svg">
<path d="M59 51.4185L30 67.99L1 51.4185V18.2935L30 1.72206L59 18.2935V51.4185Z" stroke="#2FD385" stroke-width="2"/>
<path fill-rule="evenodd" clip-rule="evenodd" d="M39 32.5703C39 39.5703 30 45.5703 30 45.5703C30 45.5703 21 39.5703 21 32.5703C21 27.5998 25.0294 23.5703 30 23.5703C34.9706 23.5703 39 27.5998 39 32.5703V32.5703Z" stroke="#2FD385" stroke-width="2" stroke-linecap="round" stroke-linejoin="round"/>
<path fill-rule="evenodd" clip-rule="evenodd" d="M30 35.5703C31.6569 35.5703 33 34.2272 33 32.5703C33 30.9135 31.6569 29.5703 30 29.5703C28.3431 29.5703 27 30.9135 27 32.5703C27 34.2272 28.3431 35.5703 30 35.5703Z" stroke="#2FD385" stroke-width="2" stroke-linecap="round" stroke-linejoin="round"/>
</svg>
