<svg width="60" height="69" viewBox="0 0 60 69" fill="none" xmlns="http://www.w3.org/2000/svg">
<path d="M59 50.8482L30 67.4197L1 50.8482V17.7232L30 1.15175L59 17.7232V50.8482Z" stroke="#2FD385" stroke-width="2"/>
<path fill-rule="evenodd" clip-rule="evenodd" d="M38.9999 38.92V41.92C39.0022 42.4831 38.767 43.0211 38.352 43.4018C37.937 43.7825 37.3808 43.9707 36.8199 43.92C33.7428 43.5856 30.7869 42.5341 28.1899 40.85C25.7738 39.3146 23.7253 37.2661 22.1899 34.85C20.4999 32.2412 19.4482 29.271 19.1199 26.18C19.0694 25.6208 19.2562 25.0662 19.6347 24.6516C20.0132 24.237 20.5485 24.0005 21.1099 24H24.1099C25.1138 23.9901 25.9694 24.7259 26.1099 25.72C26.2366 26.68 26.4714 27.6227 26.8099 28.53C27.0847 29.2609 26.909 30.0848 26.3599 30.64L25.0899 31.91C26.5135 34.4135 28.5864 36.4864 31.0899 37.91L32.3599 36.64C32.9151 36.091 33.7391 35.9152 34.4699 36.19C35.3772 36.5285 36.3199 36.7634 37.2799 36.89C38.2855 37.0318 39.0251 37.9048 38.9999 38.92Z" stroke="#2FD385" stroke-width="2" stroke-linecap="round" stroke-linejoin="round"/>
</svg>
