<svg width="60" height="69" viewBox="0 0 60 69" fill="none" xmlns="http://www.w3.org/2000/svg">
<path d="M59 50.9928L30 67.5642L1 50.9928V17.8677L30 1.29628L59 17.8677V50.9928Z" stroke="#2FD385" stroke-width="2"/>
<path fill-rule="evenodd" clip-rule="evenodd" d="M30 38.1445C32.2091 38.1445 34 36.3537 34 34.1445C34 31.9354 32.2091 30.1445 30 30.1445C27.7909 30.1445 26 31.9354 26 34.1445C26 36.3537 27.7909 38.1445 30 38.1445Z" stroke="#2FD385" stroke-width="2" stroke-linecap="round" stroke-linejoin="round"/>
<path d="M34.0001 34.1445V35.1445C34.0001 36.8014 35.3433 38.1445 37.0001 38.1445C38.657 38.1445 40.0001 36.8014 40.0001 35.1445V34.1445C39.9998 29.4974 36.7982 25.4629 32.2727 24.4068C27.7472 23.3507 23.0906 25.5513 21.0334 29.7182C18.9761 33.8852 20.0606 38.9202 23.6507 41.8708C27.2409 44.8214 32.3906 44.91 36.0801 42.0845" stroke="#2FD385" stroke-width="2" stroke-linecap="round" stroke-linejoin="round"/>
</svg>
