<svg width="206" height="910" viewBox="0 0 206 910" fill="none" xmlns="http://www.w3.org/2000/svg">
<path d="M-150.073 668.228C-151.139 658.294 -148.14 650.259 -138.608 645.897C-129.17 641.565 -121.127 644.924 -113.19 652.697C-110.248 642.061 -105.673 633.511 -94.2171 632.335C-84.3935 631.331 -77.8858 636.255 -73.5161 644.644C-73.2369 645.543 -72.9888 646.425 -72.7096 647.323C-72.0539 652.019 -71.7536 657.24 -74.6448 660.782C-79.9138 667.267 -75.8666 667.694 -70.9657 670.786C-64.1778 675.027 -60.9051 675.799 -57.8968 667.295C-56.7843 664.201 -52.5 662.222 -49.6622 659.758C-48.3856 659.362 -47.1091 658.965 -45.8636 658.552C-36.6301 658.067 -28.788 660.53 -24.3642 669.343C-19.4591 679.121 -22.9649 687.443 -30.7164 695.866C-19.7762 698.454 -11.5125 703.274 -10.352 714.682C-9.39282 724.442 -14.3178 730.95 -22.6432 735.274C-23.5415 735.553 -24.4235 735.801 -25.3218 736.081C-29.4945 735.666 -34.7623 736.733 -37.584 734.577C-45.2171 728.783 -45.7843 733.548 -49.296 739.098C-53.5197 745.777 -51.9391 747.359 -45.892 750.302C-42.4493 751.954 -40.4111 756.427 -37.7048 759.63C-37.411 760.576 -37.0861 761.538 -36.7923 762.483C-35.4938 772.501 -38.5855 780.486 -48.0245 784.897C-57.4473 789.277 -65.5261 786.137 -73.4012 778.396C-76.678 788.539 -80.8373 797.428 -92.4185 798.616C-102.242 799.621 -108.782 794.758 -113.312 786.522C-113.65 785.435 -113.957 784.363 -114.311 783.307C-113.849 779.12 -114.732 774.028 -112.633 770.939C-108.096 764.267 -110.655 763.04 -116.715 759.972C-122.589 757.002 -125.199 755.194 -128.173 762.807C-129.529 766.287 -134.255 768.43 -137.427 771.152C-138.514 771.49 -139.601 771.828 -140.705 772.197C-150.592 773.247 -158.627 770.249 -162.96 760.811C-167.247 751.437 -164.45 743.336 -156.382 735.514C-167.122 732.319 -175.821 727.35 -176.674 715.431C-177.316 706.272 -172.554 700.075 -164.917 695.705C-163.546 695.279 -162.191 694.884 -160.851 694.442C-153.882 693.676 -147.677 695.792 -142.202 699.897C-135.889 690.599 -131.85 682.241 -145.495 676.371C-147.14 675.664 -147.932 673.033 -149.102 671.271C-149.456 670.214 -149.765 669.221 -150.073 668.228ZM-144.82 731.429C-138.399 727.567 -133.841 745.152 -127.132 732.542C-123.712 726.113 -125.113 723.438 -131.126 720.355C-143.724 713.85 -137.462 730.749 -144.82 731.429ZM-109.7 664.262C-106.8 670.256 -124.679 676.953 -108.091 682.867C-94.8921 687.553 -100.47 674.692 -95.0449 672.047C-101.086 671.125 -104.385 667.017 -109.7 664.262ZM-77.9319 767.154C-71.6115 751.373 -71.869 751.712 -75.1113 749.454C-86.3992 741.659 -87.0992 752.92 -92.7043 758.991C-85.9878 759.833 -82.2654 763.886 -77.9319 767.154ZM-41.7128 699.853C-47.6063 697.822 -52.5621 695.889 -57.3898 692.282C-55.8695 698.342 -69.3299 701.825 -57.9165 709.607C-43.7843 719.213 -49.05 700.267 -41.7128 699.853ZM-89.4979 710.167C-92.8198 708.736 -96.1349 703.908 -98.2714 711.13C-99.3641 714.788 -103.967 717.826 -96.7952 720.885C-91.9208 722.974 -89.9623 723.687 -87.4844 718.147C-85.6141 713.989 -83.696 711.319 -89.4979 710.167Z" fill="#F7F7FA"/>
<path d="M-25.3593 736.14C-24.461 735.861 -23.5789 735.613 -22.6806 735.334C-21.8881 735.632 -21.1004 736.165 -20.303 736.228C-9.90165 736.832 -1.904 740.879 0.125337 751.914C1.77398 760.889 -1.95877 768.063 -10.273 771.84C-20.4685 776.486 -28.3831 772.205 -34.8251 764.071C-35.3292 763.45 -36.1984 763.073 -36.8932 762.589C-37.1871 761.643 -37.5119 760.681 -37.8058 759.735C-36.8426 750.156 -32.6421 742.318 -25.3593 736.14Z" fill="#F7F7FA"/>
<path d="M12.4842 674.044C8.62298 682.139 -2.0913 686.117 -10.4899 682.531C-19.1836 678.83 -23.4437 667.374 -19.3202 658.704C-15.2455 650.128 -3.6572 646.293 4.78575 650.772C12.7949 655.023 16.3943 665.855 12.4842 674.044Z" fill="#F7F7FA"/>
<path d="M24.0844 713.053C19.6053 721.496 7.87007 724.857 -0.315379 720.039C-8.17628 715.431 -11.3029 704.452 -7.03723 696.49C-2.55815 688.047 9.17708 684.686 17.3788 689.473C25.1924 694.096 28.35 705.091 24.0844 713.053Z" fill="#F7F7FA"/>
<path d="M-1.23265 636.178C-6.97707 644.469 -14.5613 647.008 -23.399 641.925C-32.2678 636.827 -34.3107 628.752 -29.2921 619.96C-24.2245 611.075 -16.1656 609.063 -7.32628 614.067C1.63703 619.136 2.97876 627.04 -1.23265 636.178Z" fill="#F7F7FA"/>
<path d="M13.1119 757.912C4.16616 751.981 1.31309 744.469 6.24198 735.472C11.1546 726.505 19.158 724.148 28.1408 729.029C37.1236 733.911 39.4339 741.929 34.6305 750.913C29.7457 760.053 21.8251 761.425 13.1119 757.912Z" fill="#F7F7FA"/>
<path d="M-13.8414 807.975C-22.2326 802.495 -24.9013 795.159 -20.4861 786.01C-16.2827 777.264 -5.886 774.266 2.32243 779.492C10.8717 784.897 13.0287 792.756 8.10458 801.518C3.13161 810.374 -4.69919 811.952 -13.8414 807.975Z" fill="#F7F7FA"/>
<path d="M45.7211 788.349C40.7491 795.623 33.8271 798.707 25.8295 794.66C17.8465 790.66 15.3261 782.967 19.3097 775.015C23.3095 767.032 30.9867 764.542 38.9549 768.495C46.9852 772.48 48.5876 779.888 45.7211 788.349Z" fill="#F7F7FA"/>
<path d="M40.1878 706.133C32.9285 701.208 29.8898 694.35 33.8587 686.35C37.8423 678.398 45.4575 675.876 53.3948 679.813C61.363 683.765 63.8688 691.411 59.9325 699.349C55.9946 707.364 48.6481 708.999 40.1878 706.133Z" fill="#F7F7FA"/>
<path d="M28.4379 667.837C21.009 662.783 17.9393 655.909 21.9391 647.926C25.9227 639.974 33.5689 637.468 41.5062 641.404C49.4745 645.357 51.9493 652.987 48.044 660.94C44.0735 669.018 36.6666 670.542 28.4379 667.837Z" fill="#F7F7FA"/>
<path d="M17.9605 838.223C13.3635 845.536 7.06736 847.882 -0.597731 843.653C-8.27751 839.378 -9.92532 832.657 -5.68395 825.118C-1.70328 818.074 4.64526 816.231 11.8682 819.871C19.711 823.836 21.3799 830.291 17.9605 838.223Z" fill="#F7F7FA"/>
<path d="M10.6314 610.535C15.3325 602.723 21.508 600.156 29.2546 604.23C36.9538 608.318 38.8706 614.903 34.7369 622.538C30.9274 629.633 24.7012 631.619 17.4114 628.182C9.45468 624.433 7.84774 618.011 10.6314 610.535Z" fill="#F7F7FA"/>
<path d="M52.0555 742.988C44.9201 738.129 42.9839 731.731 47.4421 724.306C51.9493 716.787 58.7872 715.518 66.0872 719.989C72.9696 724.201 74.4509 730.636 70.5648 737.651C66.3512 745.363 59.8116 746.592 52.0555 742.988Z" fill="#F7F7FA"/>
<path d="M55.1175 825.249C51.6353 830.893 46.3811 833.589 39.9363 830.952C32.8864 828.036 30.492 821.832 33.5907 815.037C36.7219 808.179 43.1062 806.117 49.8171 809.528C56.0013 812.661 57.4335 818.437 55.1175 825.249Z" fill="#F7F7FA"/>
<path d="M21.7951 582.905C18.3764 588.504 13.2168 591.17 6.80293 588.549C-0.18497 585.665 -2.5809 579.54 0.501466 572.776C3.63111 565.996 9.87519 563.901 16.5861 567.311C22.723 570.458 24.1731 576.126 21.7951 582.905Z" fill="#F7F7FA"/>
<path d="M65.3784 780.37C59.6735 776.777 57.1522 771.417 59.8972 765.068C62.9208 758.114 69.186 755.753 75.9311 759.022C82.7235 762.278 84.6908 768.691 81.1404 775.368C77.8687 781.44 72.0629 782.778 65.3784 780.37Z" fill="#F7F7FA"/>
<path d="M80.1269 690.269C74.7187 686.713 72.8597 681.899 75.9538 676.09C79.3575 669.692 84.8976 668.334 90.945 672.028C96.5292 675.399 97.6269 680.683 94.3484 686.316C91.0374 692.011 86.0076 692.926 80.1269 690.269Z" fill="#F7F7FA"/>
<path d="M13.4475 879.439C8.48619 876.237 6.32557 871.62 8.78398 866.268C11.521 860.311 16.9597 858.543 22.7216 861.651C27.8947 864.451 29.3707 869.617 26.679 874.887C23.9239 880.202 19.0017 881.213 13.4475 879.439Z" fill="#F7F7FA"/>
<path d="M92.537 728.202C87.8464 724.786 85.733 720.154 88.423 714.963C91.39 709.246 96.8892 707.589 102.411 710.927C107.299 713.893 108.759 719.091 105.788 724.213C102.834 729.305 97.9463 730.176 92.537 728.202Z" fill="#F7F7FA"/>
<path d="M63.6635 637.868C67.6527 631.936 72.4359 630.061 78.2288 633.186C84.6103 636.621 85.938 642.144 82.2276 648.223C78.8252 653.791 73.5574 654.858 67.9243 651.579C62.1673 648.235 61.6143 643.119 63.6635 637.868Z" fill="#F7F7FA"/>
<path d="M56.5595 612.852C51.9208 609.187 49.9656 604.48 52.9997 599.312C55.9539 594.22 61.1678 592.729 66.3067 595.669C71.3983 598.623 72.9053 603.806 69.9495 608.976C66.979 614.098 61.9818 614.951 56.5595 612.852Z" fill="#F7F7FA"/>
<path d="M105.557 764.438C101.961 761.874 100.419 758.413 102.457 754.461C104.788 749.952 108.978 748.754 113.245 751.472C116.893 753.786 117.925 757.691 115.575 761.557C113.306 765.348 109.675 766.009 105.557 764.438Z" fill="#F7F7FA"/>
<path d="M78.7065 815.581C73.5788 812.094 72.7586 807.786 75.7815 803.166C78.5289 798.994 82.7419 798.203 86.9953 800.795C91.9451 803.794 92.5892 808.286 89.5664 812.906C86.8646 817.141 82.7542 817.512 78.7065 815.581Z" fill="#F7F7FA"/>
<path d="M52.8518 865.43C48.4416 862.082 47.1895 858.22 49.9679 854.064C52.3422 850.527 56.2159 849.479 59.9736 851.811C64.2579 854.419 65.1922 858.51 62.4757 862.698C60.1145 866.361 56.3351 866.628 52.8518 865.43Z" fill="#F7F7FA"/>
<path d="M45.9907 572.488C42.3618 569.986 40.7887 566.509 42.7796 562.572C45.0492 558.03 49.2083 556.815 53.5546 559.457C57.2666 561.725 58.2676 565.614 56.0271 569.498C53.7246 573.35 50.0937 574.012 45.9907 572.488Z" fill="#F7F7FA"/>
<path d="M-4.75963 546.67C-9.33759 543.868 -10.743 539.846 -7.95011 534.986C-5.48152 530.667 -1.52792 529.542 2.88841 531.825C7.89349 534.417 9.07555 538.638 6.31368 543.514C3.85978 547.88 -0.0254321 548.725 -4.75963 546.67Z" fill="#F7F7FA"/>
<path d="M-151.372 319.669C-160.731 316.169 -166.57 309.888 -166.198 299.412C-165.842 289.033 -159.235 283.348 -148.729 279.736C-156.918 272.34 -162.512 264.418 -158.429 253.65C-154.925 244.418 -147.606 240.807 -138.149 240.66C-137.221 240.813 -136.321 240.987 -135.393 241.14C-130.901 242.658 -126.099 244.729 -124.228 248.901C-120.792 256.517 -118.596 253.091 -113.636 250.095C-106.803 245.927 -104.646 243.347 -110.901 236.847C-113.168 234.466 -113.018 229.749 -113.948 226.108C-113.73 224.789 -113.513 223.47 -113.324 222.172C-109.62 213.7 -103.904 207.793 -94.0432 207.788C-83.1039 207.784 -77.2352 214.648 -73.1789 225.352C-65.9625 216.731 -57.9505 211.504 -47.2317 215.579C-38.0767 219.095 -34.466 226.414 -34.3312 235.794C-34.4842 236.722 -34.6576 237.622 -34.8106 238.55C-37.0507 242.095 -38.4577 247.282 -41.6496 248.838C-50.2495 253.066 -46.2442 255.708 -42.8563 261.335C-38.7785 268.103 -36.6554 267.4 -31.3151 263.312C-28.2955 260.975 -23.3831 261.157 -19.307 260.173C-18.33 260.334 -17.3245 260.475 -16.3475 260.636C-6.81026 263.964 -1.05655 270.307 -1.34314 280.722C-1.65013 291.108 -8.07803 296.923 -18.5267 300.495C-10.9274 307.969 -4.84564 315.67 -8.97318 326.556C-12.477 335.788 -19.7552 339.456 -29.1474 339.815C-30.271 339.63 -31.3661 339.424 -32.4693 339.267C-36.0059 336.978 -40.9532 335.485 -42.7742 332.225C-46.7059 325.179 -48.9492 326.917 -54.4076 330.959C-59.6953 334.88 -62.4803 336.403 -57.0079 342.473C-54.5042 345.244 -54.7065 350.429 -53.694 354.485C-53.8792 355.609 -54.0644 356.732 -54.2292 357.884C-57.7206 367.194 -64.002 373.033 -74.3803 372.677C-84.6814 372.309 -90.6708 366.178 -94.0475 355.461C-101.716 363.63 -110.058 369.18 -121.095 364.601C-129.57 361.072 -132.977 354.037 -133.46 345.251C-133.227 343.835 -132.973 342.446 -132.768 341.05C-130.33 334.477 -125.658 329.878 -119.534 326.823C-125.017 317.013 -130.679 309.657 -142.041 319.225C-143.411 320.379 -146.118 319.908 -148.217 320.164C-149.321 320.007 -150.346 319.838 -151.372 319.669ZM-92.5186 343.294C-93.0936 335.823 -75.3307 339.629 -83.5968 327.98C-87.8114 322.041 -90.8311 322.096 -96.2814 326.09C-107.743 334.437 -89.8287 336.411 -92.5186 343.294ZM-136.826 281.798C-130.168 281.892 -132.193 300.877 -119.472 288.698C-109.368 278.998 -123.366 278.222 -123.299 272.186C-126.831 277.174 -131.981 278.282 -136.826 281.798ZM-30.6073 299.507C-41.8828 286.785 -41.695 287.167 -45.1671 289.053C-57.1935 295.652 -47.4404 301.324 -44.5249 309.055C-40.7624 303.428 -35.4704 301.917 -30.6073 299.507ZM-74.5418 236.969C-78.9985 241.328 -82.9479 244.892 -88.3354 247.591C-82.2365 248.948 -85.1546 262.542 -73.0837 255.826C-58.1628 247.497 -77.4599 243.714 -74.5418 236.969ZM-86.7354 284.309C-89.5027 286.638 -95.3047 287.438 -89.8054 292.585C-87.0252 295.2 -86.3724 300.677 -80.4234 295.636C-76.372 292.214 -74.8566 290.783 -78.6986 286.086C-81.5782 282.55 -83.1055 279.639 -86.7354 284.309Z" fill="#F7F7FA"/>
<path d="M-34.7726 238.611C-34.6196 237.683 -34.4462 236.783 -34.2932 235.855C-33.6716 235.28 -32.8422 234.814 -32.4283 234.13C-27.2271 225.102 -20.0251 219.766 -9.25111 222.897C-0.488545 225.445 4.25216 231.997 3.90221 241.122C3.4868 252.318 -3.88641 257.475 -14.0447 259.589C-14.8258 259.762 -15.5531 260.37 -16.2971 260.774C-17.2741 260.613 -18.2796 260.472 -19.2566 260.311C-27.389 255.157 -32.5136 247.89 -34.7726 238.611Z" fill="#F7F7FA"/>
<path d="M-2.88248 335.887C-8.02905 327.688 -5.14046 315.795 3.14105 311.063C11.1461 306.487 22.2937 309.177 27.0811 316.816C32.2277 325.015 29.3107 336.928 21.0577 341.639C13.073 346.244 1.92536 343.554 -2.88248 335.887Z" fill="#F7F7FA"/>
<path d="M28.904 301.164C21.0595 306.746 9.01322 304.484 3.81404 296.452C-1.1688 288.781 0.935417 277.537 8.38163 272.241C16.2262 266.659 28.2725 268.921 33.4717 276.953C38.4545 284.624 36.3218 295.889 28.904 301.164Z" fill="#F7F7FA"/>
<path d="M-8.0299 375.461C-13.031 366.683 -12.0234 358.896 -3.95611 352.724C3.73329 346.866 14.5583 348.926 19.4488 357.309C24.5557 366.054 22.9259 374.115 14.5564 379.685C6.05263 385.308 -1.68783 383.104 -8.0299 375.461Z" fill="#F7F7FA"/>
<path d="M1.92983 213.975C-7.38023 219.315 -15.3745 218.499 -21.2093 210.061C-27.0237 201.651 -25.5448 193.439 -17.1554 187.597C-8.766 181.754 -0.562838 183.281 5.3165 191.602C11.2978 200.064 8.97558 207.76 1.92983 213.975Z" fill="#F7F7FA"/>
<path d="M34.6058 260.505C25.9464 265.551 18.1919 264.649 11.9916 256.602C6.0564 248.925 8.03558 238.287 16.3858 233.291C25.049 228.07 33.0407 229.663 38.6677 237.992C44.3559 246.406 42.2576 254.114 34.6058 260.505Z" fill="#F7F7FA"/>
<path d="M11.8181 397.847C15.3961 405.061 14.6886 412.245 7.71909 417.845C1.39161 422.899 -9.88542 420.689 -13.6137 413.626C-17.7258 405.848 -16.2942 398.532 -9.10027 393.245C-2.97946 388.684 7.15417 390.982 11.8181 397.847Z" fill="#F7F7FA"/>
<path d="M43.7535 198.462C48.0282 206.166 47.6836 213.737 40.4817 219.073C33.3286 224.417 25.3213 223.222 19.9976 216.098C14.6535 208.945 15.8683 200.966 22.9725 195.614C30.1337 190.221 37.4748 192.108 43.7535 198.462Z" fill="#F7F7FA"/>
<path d="M70.3974 284.294C74.6641 292.048 74.3399 299.646 67.1503 305.06C59.9688 310.424 51.9127 309.222 46.5401 302.089C41.1471 294.928 42.378 286.851 49.5107 281.479C56.6595 276.009 64.0494 277.904 70.3974 284.294Z" fill="#F7F7FA"/>
<path d="M39.6895 341.851C35.4228 334.098 35.7754 326.479 42.9855 321.094C50.167 315.729 58.2231 316.932 63.6161 324.093C69.009 331.254 67.7577 339.302 60.6454 344.703C53.3989 350.157 45.9886 348.233 39.6895 341.851Z" fill="#F7F7FA"/>
<path d="M56.6024 364.962C60.9421 372.577 59.8187 379.241 52.4895 383.979C45.0545 388.75 38.2669 386.853 33.6754 379.548C29.3615 372.69 30.8394 366.16 37.5013 361.513C44.7038 356.478 51.2143 358.228 56.6024 364.962Z" fill="#F7F7FA"/>
<path d="M75.8986 245.63C80.3763 253.017 79.6516 259.697 72.4368 264.654C65.1731 269.604 58.4269 268.065 53.5874 260.895C49.0743 254.18 50.2713 247.679 56.762 242.852C63.8217 237.618 70.3398 239.019 75.8986 245.63Z" fill="#F7F7FA"/>
<path d="M6.03921 172.473C-1.50257 176.674 -8.0894 175.538 -12.7297 168.225C-17.4313 160.826 -15.502 154.145 -8.23347 149.622C-1.38366 145.357 5.03303 146.917 9.56224 153.534C14.5687 160.757 12.7366 167.154 6.03921 172.473Z" fill="#F7F7FA"/>
<path d="M-17.617 452.508C-20.9223 445.315 -20.2459 438.929 -13.7697 435.104C-7.48461 431.373 -0.848484 432.818 2.93187 439.412C6.32838 445.291 5.02502 451.524 -0.722709 455.343C-7.00296 459.502 -12.9402 457.469 -17.617 452.508Z" fill="#F7F7FA"/>
<path d="M80.95 206.598C84.4356 212.241 84.4909 218.146 79.2451 222.725C73.4792 227.721 66.8607 227.082 62.1742 221.266C57.4469 215.394 58.4647 208.763 64.5205 204.291C70.0927 200.167 75.8984 201.475 80.95 206.598Z" fill="#F7F7FA"/>
<path d="M46.1959 422.005C39.8984 425.659 33.5575 425.467 29.0782 419.46C24.6194 413.481 25.7633 406.846 31.7622 402.415C37.2979 398.36 43.6646 399.309 47.9716 404.535C52.7354 410.338 51.3912 416.514 46.1959 422.005Z" fill="#F7F7FA"/>
<path d="M45.4286 177.313C39.6599 180.803 33.7382 180.655 29.2927 175.356C24.4312 169.537 25.1274 162.878 31.0732 158.313C37.0271 153.7 43.6424 154.815 48.0202 160.981C51.982 166.627 50.5761 172.417 45.4286 177.313Z" fill="#F7F7FA"/>
<path d="M106.211 292.605C110.345 299.032 109.964 304.388 104.034 308.554C98.7012 312.291 93.4581 311.527 89.55 306.317C85.2462 300.615 86.0992 295.136 91.8829 290.946C97.2806 287.119 102.195 288.506 106.211 292.605Z" fill="#F7F7FA"/>
<path d="M99.7694 332.289C103.904 338.715 103.514 344.121 97.5557 348.307C92.1945 352.065 86.9229 351.321 82.974 346.054C78.6498 340.323 79.4905 334.767 85.3515 330.564C90.7288 326.709 95.7003 328.055 99.7694 332.289Z" fill="#F7F7FA"/>
<path d="M110.724 268.133C105.638 271.133 100.542 270.996 96.859 266.4C92.7598 261.283 93.6166 255.629 98.9778 251.871C103.798 248.501 109.079 249.497 112.583 254.264C116.1 259.109 114.798 263.963 110.724 268.133Z" fill="#F7F7FA"/>
<path d="M10.9616 129.657C5.806 132.32 0.718551 132.134 -2.71661 127.403C-6.49856 122.188 -5.51569 116.529 -0.0562323 113.089C4.78534 110.048 10.086 111.072 13.3343 116.023C16.5623 120.946 15.1504 125.706 10.9616 129.657Z" fill="#F7F7FA"/>
<path d="M76.2524 384.559C73.776 378.882 74.3241 373.578 80.0444 370.381C85.0208 367.589 90.2848 368.682 93.3501 373.678C96.6645 379.142 95.4616 384.614 89.8389 387.827C84.7976 390.709 80.0048 389.192 76.2524 384.559Z" fill="#F7F7FA"/>
<path d="M37.5745 459.072C32.5333 461.954 28.0963 461.474 24.9709 456.995C21.8455 452.515 22.639 447.854 27.1182 444.729C31.5974 441.603 36.2302 442.417 39.384 446.876C42.5583 451.363 41.3452 455.679 37.5745 459.072Z" fill="#F7F7FA"/>
<path d="M49.1888 134.256C45.2856 136.322 41.5004 136.15 38.8812 132.557C35.8948 128.452 36.7011 124.169 41.0429 121.573C44.7464 119.348 48.6996 120.175 51.1035 124.009C53.4747 127.736 52.4392 131.279 49.1888 134.256Z" fill="#F7F7FA"/>
<path d="M82.88 181.177C77.4646 184.199 73.2462 183.001 70.4703 178.229C67.9719 173.903 69.1529 169.782 73.3766 167.142C78.275 164.06 82.5793 165.497 85.3552 170.27C87.9309 174.583 86.4198 178.424 82.88 181.177Z" fill="#F7F7FA"/>
<path d="M115.857 226.63C110.888 229.072 106.874 228.461 104.404 224.115C102.306 220.407 103.105 216.474 106.873 214.16C111.125 211.499 115.201 212.497 117.728 216.802C119.944 220.554 118.489 224.053 115.857 226.63Z" fill="#F7F7FA"/>
<path d="M83.6296 424.717C78.8734 427.696 75.0147 427.361 72.0364 423.207C69.4457 419.594 69.8622 415.849 73.2146 413.014C76.9815 409.797 81.0758 409.92 84.3671 413.849C87.6503 417.827 86.5746 421.614 83.6296 424.717Z" fill="#F7F7FA"/>
</svg>
